<?xml version="1.0" encoding="UTF-8" standalone="no"?>
<!-- Created with Inkscape (http://www.inkscape.org/) -->

<svg
   xmlns:dc="http://purl.org/dc/elements/1.1/"
   xmlns:cc="http://creativecommons.org/ns#"
   xmlns:rdf="http://www.w3.org/1999/02/22-rdf-syntax-ns#"
   xmlns:svg="http://www.w3.org/2000/svg"
   xmlns="http://www.w3.org/2000/svg"
   xmlns:xlink="http://www.w3.org/1999/xlink"
   xmlns:sodipodi="http://sodipodi.sourceforge.net/DTD/sodipodi-0.dtd"
   xmlns:inkscape="http://www.inkscape.org/namespaces/inkscape"
   version="1.0"
   x="0.00000000"
   y="0.00000000"
   width="256"
   height="256"
   id="svg1443"
   sodipodi:version="0.32"
   inkscape:version="0.48.2 r9819"
   sodipodi:docname="tab_reminder.svg"
   inkscape:output_extension="org.inkscape.output.svg.inkscape"
   sodipodi:modified="true">
  <metadata
     id="metadata84">
    <rdf:RDF>
      <cc:Work
         rdf:about="">
        <dc:format>image/svg+xml</dc:format>
        <dc:type
           rdf:resource="http://purl.org/dc/dcmitype/StillImage" />
        <dc:title />
      </cc:Work>
    </rdf:RDF>
  </metadata>
  <sodipodi:namedview
     inkscape:window-height="688"
     inkscape:window-width="1366"
     inkscape:pageshadow="2"
     inkscape:pageopacity="0.0"
     borderopacity="1.0"
     bordercolor="#666666"
     pagecolor="#ffffff"
     id="base"
     inkscape:zoom="0.78239463"
     inkscape:cx="149.26355"
     inkscape:cy="129.35443"
     inkscape:window-x="0"
     inkscape:window-y="25"
     inkscape:current-layer="svg1443"
     width="128px"
     height="128px"
     showgrid="false"
     showguides="true"
     inkscape:guide-bbox="true"
     inkscape:window-maximized="1">
    <sodipodi:guide
       orientation="0,1"
       position="232.90575,243.29008"
       id="guide2834" />
    <sodipodi:guide
       orientation="1,0"
       position="14.834761,57.11383"
       id="guide2836" />
    <sodipodi:guide
       orientation="1,0"
       position="244.77356,13.351285"
       id="guide2838" />
    <sodipodi:guide
       orientation="0,1"
       position="118.67809,14.093023"
       id="guide2840" />
  </sodipodi:namedview>
  <defs
     id="defs1446">
    <radialGradient
       gradientUnits="userSpaceOnUse"
       gradientTransform="matrix(2.0969977,-0.157772,0.1381056,1.8356061,-38.585371,-17.649986)"
       r="29.749996"
       fy="20.066236"
       fx="32.322121"
       cy="20.066236"
       cx="32.322121"
       id="radialGradient5107"
       xlink:href="#linearGradient3159"
       inkscape:collect="always" />
    <radialGradient
       r="30.611208"
       fy="23.746593"
       fx="101.23341"
       cy="23.746593"
       cx="101.23341"
       gradientTransform="matrix(1.1450349,0,0,0.8386457,-84.15628,4.1350062)"
       gradientUnits="userSpaceOnUse"
       id="radialGradient2182"
       xlink:href="#linearGradient4107"
       inkscape:collect="always" />
    <linearGradient
       y2="20.489626"
       x2="36.247208"
       y1="67.456306"
       x1="18.187622"
       gradientTransform="matrix(0.934207,0,0,-0.9245083,1.7898386,52.19171)"
       gradientUnits="userSpaceOnUse"
       id="linearGradient2176"
       xlink:href="#linearGradient8966"
       inkscape:collect="always" />
    <linearGradient
       id="linearGradient4107">
      <stop
         id="stop4109"
         offset="0"
         style="stop-color:#000000;stop-opacity:1;" />
      <stop
         style="stop-color:#000000;stop-opacity:0.7525773;"
         offset="0.59615386"
         id="stop4115" />
      <stop
         id="stop4111"
         offset="1"
         style="stop-color:#a6a6a6;stop-opacity:1;" />
    </linearGradient>
    <linearGradient
       id="linearGradient8966"
       inkscape:collect="always">
      <stop
         id="stop8968"
         offset="0"
         style="stop-color:#ffffff;stop-opacity:1;" />
      <stop
         id="stop8970"
         offset="1"
         style="stop-color:#ffffff;stop-opacity:0;" />
    </linearGradient>
    <linearGradient
       id="linearGradient3159">
      <stop
         id="stop3161"
         offset="0"
         style="stop-color:#000000;stop-opacity:0;" />
      <stop
         style="stop-color:#ffffff;stop-opacity:0.2371134;"
         offset="0.51923078"
         id="stop5105" />
      <stop
         id="stop3163"
         offset="1"
         style="stop-color:#000000;stop-opacity:0;" />
    </linearGradient>
    <linearGradient
       inkscape:collect="always"
       xlink:href="#linearGradient8966"
       id="linearGradient3027"
       gradientUnits="userSpaceOnUse"
       gradientTransform="matrix(3.7126,0,0,-3.6740567,9.9618093,231.05254)"
       x1="18.187622"
       y1="67.456306"
       x2="36.247208"
       y2="20.489626" />
    <radialGradient
       inkscape:collect="always"
       xlink:href="#linearGradient3159"
       id="radialGradient3033"
       gradientUnits="userSpaceOnUse"
       gradientTransform="matrix(8.3336066,-0.62699629,0.54884073,7.2948192,-150.49193,-46.50295)"
       cx="32.322121"
       cy="20.066236"
       fx="32.322121"
       fy="20.066236"
       r="29.749996" />
    <radialGradient
       inkscape:collect="always"
       xlink:href="#linearGradient4107"
       id="radialGradient3036"
       gradientUnits="userSpaceOnUse"
       gradientTransform="matrix(4.5504439,0,0,3.3328331,-331.59371,40.07204)"
       cx="101.23341"
       cy="23.746593"
       fx="101.23341"
       fy="23.746593"
       r="30.611208" />
  </defs>
  <path
     sodipodi:type="inkscape:offset"
     inkscape:radius="1.1302813"
     inkscape:original="M 31.75 0.28125 C 23.307981 0.28125 15.644132 2.6967286 10.03125 6.71875 C 4.4183676 10.740771 0.84375 16.42667 0.84375 22.75 C 0.84375 29.036123 4.3829491 34.64369 9.9375 38.65625 C 9.9478966 38.664487 9.958329 38.679271 9.96875 38.6875 C 16.846776 44.118592 29.017029 47.806957 39.5625 50.28125 C 50.123948 52.759292 59.03125 53.9375 59.03125 53.9375 A 1.1713135 1.1713135 0 0 0 59.5625 51.6875 C 59.5625 51.6875 49.874088 48.251603 41.96875 43.875 C 47.401052 42.492353 52.193404 40.086154 55.78125 36.875 C 60.037111 33.065966 62.65625 28.14902 62.65625 22.75 C 62.65625 16.42667 59.081633 10.740771 53.46875 6.71875 C 47.855867 2.6967287 40.192017 0.28125 31.75 0.28125 z "
     style="opacity:0.25;fill:#333333;fill-opacity:1"
     id="path3818"
     d="m 31.75,-0.84375 c -8.657621,0 -16.540317,2.475293 -22.375,6.65625 -5.8381608,4.1834486 -9.65625,10.1882 -9.65625,16.9375 0,6.696217 3.7768012,12.610796 9.53125,16.78125 0.012161,0.0088 0.019071,0.02245 0.03125,0.03125 7.191635,5.678727 19.430865,9.325322 30.03125,11.8125 10.621472,2.492125 19.5625,3.6875 19.5625,3.6875 a 1.1303944,1.1303944 0 0 0 0.0625,0 c 0.0012,8.4e-5 0.217546,2.2e-5 0.21875,0 0.0012,-2.2e-5 0.186303,1.28e-4 0.1875,0 0.0012,-1.28e-4 0.217569,-0.03102 0.21875,-0.03125 0.0012,-2.33e-4 0.186344,-0.06216 0.1875,-0.0625 0.0012,-3.36e-4 0.186378,-0.06206 0.1875,-0.0625 0.0011,-4.36e-4 0.18642,-0.06197 0.1875,-0.0625 0.0011,-5.33e-4 0.186471,-0.09312 0.1875,-0.09375 0.001,-6.26e-4 0.15528,-0.124286 0.15625,-0.125 9.7e-4,-7.14e-4 0.155347,-0.124204 0.15625,-0.125 9.03e-4,-7.96e-4 0.15542,-0.155377 0.15625,-0.15625 8.3e-4,-8.73e-4 0.12425,-0.155308 0.125,-0.15625 7.5e-4,-9.42e-4 0.124336,-0.155245 0.125,-0.15625 6.64e-4,-0.001 0.09318,-0.155191 0.09375,-0.15625 5.73e-4,-0.0011 0.09327,-0.186395 0.09375,-0.1875 4.78e-4,-0.0011 0.09337,-0.186357 0.09375,-0.1875 3.79e-4,-0.0011 0.03097,-0.186328 0.03125,-0.1875 2.77e-4,-0.0012 0.03108,-0.217558 0.03125,-0.21875 1.73e-4,-0.0012 0.03118,-0.186298 0.03125,-0.1875 6.7e-5,-0.0012 3.9e-5,-0.217547 0,-0.21875 -3.9e-5,-0.0012 1.44e-4,-0.186305 0,-0.1875 -1.44e-4,-0.0012 -0.031,-0.217572 -0.03125,-0.21875 -2.49e-4,-0.0012 -0.06215,-0.186348 -0.0625,-0.1875 -3.52e-4,-0.0012 -0.06205,-0.186384 -0.0625,-0.1875 -4.52e-4,-0.0011 -0.0932,-0.186428 -0.09375,-0.1875 -5.48e-4,-0.0011 -0.09311,-0.18648 -0.09375,-0.1875 -6.4e-4,-0.001 -0.124273,-0.15529 -0.125,-0.15625 -7.27e-4,-9.6e-4 -0.124191,-0.155358 -0.125,-0.15625 -8.09e-4,-8.92e-4 -0.124116,-0.124183 -0.125,-0.125 -8.84e-4,-8.17e-4 -0.155297,-0.155513 -0.15625,-0.15625 -9.53e-4,-7.37e-4 -0.186486,-0.0931 -0.1875,-0.09375 -0.001,-6.5e-4 -0.155183,-0.124442 -0.15625,-0.125 -0.0011,-5.58e-4 -0.186388,-0.06204 -0.1875,-0.0625 A 1.1303944,1.1303944 0 0 0 59.9375,50.625 c 0,0 -7.834522,-2.935458 -15.0625,-6.625 4.456275,-1.472721 8.534425,-3.487189 11.65625,-6.28125 4.444324,-3.977711 7.25,-9.204187 7.25,-14.96875 0,-6.7493 -3.818089,-12.7540514 -9.65625,-16.9375 C 48.290316,1.6315431 40.407619,-0.84375 31.75,-0.84375 z"
     transform="matrix(3.9740657,0,0,3.9740657,2.8488731,23.63925)" />
  <path
     sodipodi:type="inkscape:offset"
     inkscape:radius="0.39881164"
     inkscape:original="M 31.75 0.28125 C 23.307981 0.28125 15.644132 2.6967286 10.03125 6.71875 C 4.4183676 10.740771 0.84375 16.42667 0.84375 22.75 C 0.84375 29.036123 4.3829491 34.64369 9.9375 38.65625 C 9.9478966 38.664487 9.958329 38.679271 9.96875 38.6875 C 16.846776 44.118592 29.017029 47.806957 39.5625 50.28125 C 50.123948 52.759292 59.03125 53.9375 59.03125 53.9375 A 1.1713135 1.1713135 0 0 0 59.5625 51.6875 C 59.5625 51.6875 49.874088 48.251603 41.96875 43.875 C 47.401052 42.492353 52.193404 40.086154 55.78125 36.875 C 60.037111 33.065966 62.65625 28.14902 62.65625 22.75 C 62.65625 16.42667 59.081633 10.740771 53.46875 6.71875 C 47.855867 2.6967287 40.192017 0.28125 31.75 0.28125 z "
     style="opacity:0.5;fill:#333333;fill-opacity:1"
     id="path3816"
     d="m 31.75,-0.125 c -8.518093,0 -16.246357,2.4531493 -21.9375,6.53125 -5.6923702,4.07898 -9.375,9.87012 -9.375,16.34375 0,6.428154 3.6291397,12.150905 9.25,16.21875 0.0067,0.0048 0.024546,-0.0048 0.03125,0 0.00528,0.0058 -0.045576,-0.0047 0,0.03125 6.988681,5.518468 19.185153,9.177411 29.75,11.65625 10.582627,2.483011 19.5,3.6875 19.5,3.6875 a 0.39885152,0.39885152 0 0 0 0.03125,0 c 0.01131,7.89e-4 0.05117,-2.9e-4 0.0625,0 0.01133,2.9e-4 0.08242,2.09e-4 0.09375,0 0.01133,-2.09e-4 0.05119,7.07e-4 0.0625,0 0.01131,-7.07e-4 0.05123,0.0012 0.0625,0 0.01127,-0.0012 0.05129,-0.02955 0.0625,-0.03125 0.01121,-0.0017 0.05138,0.0022 0.0625,0 0.01112,-0.0022 0.05149,-0.02857 0.0625,-0.03125 0.01101,-0.0027 0.08286,0.0032 0.09375,0 0.01089,-0.0032 0.05176,-0.02761 0.0625,-0.03125 0.01074,-0.0036 0.05194,-0.02714 0.0625,-0.03125 0.01056,-0.0041 0.05213,0.0046 0.0625,0 0.01037,-0.0046 0.05234,-0.02623 0.0625,-0.03125 0.01016,-0.005 0.05257,-0.02579 0.0625,-0.03125 0.0099,-0.0055 0.05282,-0.02536 0.0625,-0.03125 0.0097,-0.0059 0.05309,-0.05619 0.0625,-0.0625 0.0094,-0.0063 0.02212,-0.02453 0.03125,-0.03125 0.0091,-0.0067 0.05368,-0.02414 0.0625,-0.03125 0.0088,-0.0071 0.054,-0.055 0.0625,-0.0625 0.0085,-0.0075 0.02309,-0.02339 0.03125,-0.03125 0.0082,-0.0079 0.05469,-0.05429 0.0625,-0.0625 0.0078,-0.0082 0.05506,-0.0227 0.0625,-0.03125 0.0074,-0.0086 0.02419,-0.05363 0.03125,-0.0625 0.0071,-0.0089 0.02459,-0.05333 0.03125,-0.0625 0.0067,-0.0092 0.05625,-0.05304 0.0625,-0.0625 0.0063,-0.0095 0.02542,-0.05278 0.03125,-0.0625 0.0058,-0.0097 0.02586,-0.02128 0.03125,-0.03125 0.0054,-0.01 0.0263,-0.0523 0.03125,-0.0625 0.005,-0.0102 0.02675,-0.0521 0.03125,-0.0625 0.0045,-0.0104 0.02722,-0.08316 0.03125,-0.09375 0.004,-0.01059 -0.0036,-0.05174 0,-0.0625 0.0036,-0.01076 0.02816,-0.05159 0.03125,-0.0625 0.0031,-0.01091 0.02864,-0.05147 0.03125,-0.0625 0.0026,-0.01103 -0.0021,-0.05136 0,-0.0625 0.0021,-0.01114 -0.0016,-0.05128 0,-0.0625 0.0016,-0.01122 0.03012,-0.05122 0.03125,-0.0625 0.0011,-0.01128 -6.32e-4,-0.08243 0,-0.09375 6.32e-4,-0.01132 -1.33e-4,-0.05117 0,-0.0625 1.33e-4,-0.01133 3.65e-4,-0.05117 0,-0.0625 -3.65e-4,-0.01133 8.64e-4,-0.0512 0,-0.0625 -8.64e-4,-0.0113 -0.02989,-0.05125 -0.03125,-0.0625 -0.0014,-0.01125 0.0019,-0.08257 0,-0.09375 -0.0019,-0.01118 0.0023,-0.05141 0,-0.0625 -0.0023,-0.01109 -0.02842,-0.05152 -0.03125,-0.0625 -0.0028,-0.01098 0.0033,-0.05166 0,-0.0625 -0.0033,-0.01084 -0.02747,-0.05182 -0.03125,-0.0625 -0.0038,-0.01068 -0.027,-0.05199 -0.03125,-0.0625 -0.0042,-0.01051 -0.02654,-0.05219 -0.03125,-0.0625 -0.0047,-0.01031 -0.02609,-0.05241 -0.03125,-0.0625 -0.0052,-0.01009 -0.02565,-0.05264 -0.03125,-0.0625 -0.0056,-0.0099 -0.02522,-0.0529 -0.03125,-0.0625 -0.006,-0.0096 -0.02481,-0.05317 -0.03125,-0.0625 -0.0064,-0.0093 -0.0244,-0.05347 -0.03125,-0.0625 -0.0068,-0.009 -0.05526,-0.02253 -0.0625,-0.03125 -0.0072,-0.0087 -0.02364,-0.0541 -0.03125,-0.0625 -0.0076,-0.0084 -0.05452,-0.05445 -0.0625,-0.0625 -0.008,-0.0081 -0.02293,-0.02356 -0.03125,-0.03125 -0.0083,-0.0077 -0.05385,-0.05518 -0.0625,-0.0625 -0.0087,-0.0073 -0.05353,-0.02432 -0.0625,-0.03125 -0.009,-0.0069 -0.02199,-0.02472 -0.03125,-0.03125 -0.0093,-0.0065 -0.05296,-0.05638 -0.0625,-0.0625 -0.0095,-0.0061 -0.0527,-0.02556 -0.0625,-0.03125 -0.0098,-0.0057 -0.05246,-0.026 -0.0625,-0.03125 -0.01004,-0.0053 -0.05224,-0.02644 -0.0625,-0.03125 -0.01026,-0.0048 -0.05203,-0.0269 -0.0625,-0.03125 a 0.39885152,0.39885152 0 0 0 -0.03125,0 c 0,0 -8.991951,-3.208495 -16.6875,-7.34375 5.092291,-1.427717 9.630252,-3.709358 13.0625,-6.78125 4.322359,-3.86855 7,-8.909501 7,-14.4375 0,-6.47363 -3.682629,-12.26477 -9.375,-16.34375 C 47.996356,2.3281494 40.268091,-0.125 31.75,-0.125 z"
     transform="matrix(3.9740657,0,0,3.9740657,2.8488731,23.639254)" />
  <path
     sodipodi:type="inkscape:offset"
     inkscape:radius="3.7330811"
     inkscape:original="M 129.0625 9.375 C 63.7678 9.375 10.84375 47.286347 10.84375 94.03125 C 10.84375 117.31622 23.962607 138.41507 45.21875 153.71875 C 97.164145 194.87228 238.125 213.4375 238.125 213.4375 C 238.125 213.4375 189.94829 196.9693 156.75 176.3125 C 208.67306 167.38194 247.28125 133.94142 247.28125 94.03125 C 247.28125 47.286347 194.3572 9.375 129.0625 9.375 z "
     style="fill:#d59c3a;fill-opacity:1"
     id="path3814"
     d="M 129.0625,5.65625 C 95.692651,5.65625 65.404812,15.280735 43.28125,31.125 21.157688,46.969265 7.125,69.249948 7.125,94.03125 c 0,24.63897 13.870042,46.80234 35.78125,62.625 0.03906,0.0309 0.08585,0.0628 0.125,0.0937 27.069346,21.3775 75.40911,36.08822 117.28125,45.90625 41.9327,9.83223 77.3125,14.46875 77.3125,14.46875 a 3.7334544,3.7334544 0 0 0 1.71875,-7.21875 c 0,0 -40.34998,-13.95237 -72.1875,-31.90625 22.49753,-5.33938 42.14161,-15.29093 56.8125,-28.4375 C 240.72816,134.5444 251,115.1901 251,94.03125 251,69.249948 236.96731,46.969265 214.84375,31.125 192.72019,15.280735 162.43235,5.65625 129.0625,5.65625 z"
     transform="translate(0,20)" />
  <path
     inkscape:connector-curvature="0"
     id="path7995"
     d="m 127.87213,33.331749 c -62.764586,0 -113.649889,36.039559 -113.649889,80.506641 0,15.38169 6.131414,29.71164 16.696286,41.93411 C 33.019366,114.59626 213.343,72.883774 240.77356,104.60833 234.32025,64.480604 186.23836,33.331749 127.87213,33.331749 z"
     style="fill:url(#linearGradient3027);fill-opacity:1" />
  <path
     inkscape:connector-curvature="0"
     id="text4301"
     d="m 127.05864,140.13671 -5.50988,0 c -0.58462,-7.85309 -2.5046,-17.35951 -5.7604,-28.51933 l -6.51173,-22.526045 c -3.92371,-13.501794 -5.88556,-23.180453 -5.88556,-29.035978 0,-5.304209 1.92006,-9.575209 5.76031,-12.812973 3.84023,-3.237607 8.84926,-4.856449 15.02705,-4.856606 6.01085,1.57e-4 10.97809,1.653483 14.9019,4.959891 4.00712,3.237842 6.01076,7.371074 6.01084,12.399696 -8e-5,5.235565 -2.08719,15.017509 -6.26126,29.34597 l -6.63699,22.526045 c -2.33765,7.99101 -4.04897,17.49744 -5.13428,28.51933 m -2.62967,14.7763 c 5.59337,0 10.35185,1.65333 14.27567,4.9599 4.0072,3.23769 6.01074,7.19868 6.01086,11.88303 -1.2e-4,4.61542 -2.00366,8.57641 -6.01086,11.88305 -3.92382,3.23768 -8.6823,4.85653 -14.27567,4.85653 -5.59345,0 -10.39382,-1.61885 -14.40092,-4.85653 -3.92383,-3.30664 -5.88569,-7.26763 -5.88569,-11.88305 0,-4.61547 1.96186,-8.57646 5.88569,-11.88303 3.92362,-3.30657 8.724,-4.9599 14.40092,-4.9599"
     style="font-size:26.75916862px;font-style:normal;font-variant:normal;font-weight:bold;font-stretch:normal;text-align:start;line-height:125%;writing-mode:lr-tb;text-anchor:start;fill:#ffffff;fill-opacity:1;stroke:none;font-family:Times New Roman" />
</svg>
