/* XPM */
static char * voc2brain_icon64_xpm[] = {
"64 64 645 2",
"  	c None",
". 	c #796E5A",
"+ 	c #847A67",
"@ 	c #8D816E",
"# 	c #595340",
"$ 	c #7A715D",
"% 	c #948775",
"& 	c #928573",
"* 	c #8D816D",
"= 	c #5E5643",
"- 	c #655C49",
"; 	c #837866",
"> 	c #7E7362",
", 	c #68604E",
"' 	c #615946",
") 	c #726956",
"! 	c #9D917E",
"~ 	c #928674",
"{ 	c #877C68",
"] 	c #D4C1AD",
"^ 	c #E3D0BD",
"/ 	c #A79986",
"( 	c #8C806C",
"_ 	c #DFCCB8",
": 	c #FBE6D5",
"< 	c #F9E4D3",
"[ 	c #F0DBC9",
"} 	c #C8B7A4",
"| 	c #D9C6B4",
"1 	c #F3DECD",
"2 	c #E4D1BF",
"3 	c #CFBDAB",
"4 	c #AB9D8A",
"5 	c #706652",
"6 	c #5B5540",
"7 	c #524C38",
"8 	c #4C4733",
"9 	c #6C624E",
"0 	c #7B715D",
"a 	c #897E6A",
"b 	c #9C8F7B",
"c 	c #8E826E",
"d 	c #C1B19F",
"e 	c #FCE7D6",
"f 	c #BFAF9D",
"g 	c #C4B3A0",
"h 	c #CBBAA7",
"i 	c #9E917E",
"j 	c #AE9F8B",
"k 	c #D9C7B4",
"l 	c #EAD7C5",
"m 	c #C9B8A6",
"n 	c #AEA08E",
"o 	c #9B8F7C",
"p 	c #988C79",
"q 	c #948875",
"r 	c #7C725F",
"s 	c #6E6653",
"t 	c #8C816D",
"u 	c #B2A490",
"v 	c #B3A490",
"w 	c #A29581",
"x 	c #AC9E89",
"y 	c #978A77",
"z 	c #857966",
"A 	c #534C39",
"B 	c #6A624E",
"C 	c #625945",
"D 	c #837865",
"E 	c #9D907C",
"F 	c #B5A592",
"G 	c #998C78",
"H 	c #A0927E",
"I 	c #B4A592",
"J 	c #C8B7A5",
"K 	c #DECCB9",
"L 	c #F2DDCC",
"M 	c #F5E1CF",
"N 	c #F1DDCC",
"O 	c #D9C7B5",
"P 	c #A49784",
"Q 	c #736A57",
"R 	c #534D3A",
"S 	c #7E7460",
"T 	c #938775",
"U 	c #AD9F8D",
"V 	c #B5A694",
"W 	c #938674",
"X 	c #726855",
"Y 	c #827763",
"Z 	c #BDAE9B",
"` 	c #B9A997",
" .	c #8E826F",
"..	c #D1C0AD",
"+.	c #C4B4A1",
"@.	c #9A8D7A",
"#.	c #6E6553",
"$.	c #786D5A",
"%.	c #D0BEAB",
"&.	c #F0DBCA",
"*.	c #E5D2C1",
"=.	c #A89A86",
"-.	c #A79985",
";.	c #E7D3C1",
">.	c #F4E0CF",
",.	c #DECBBA",
"'.	c #CAB9A7",
").	c #B1A290",
"!.	c #9B8E7B",
"~.	c #807662",
"{.	c #7B715F",
"].	c #887D6B",
"^.	c #8A7F6C",
"/.	c #766D5A",
"(.	c #EEDAC8",
"_.	c #EDD9C8",
":.	c #BEAE9C",
"<.	c #938773",
"[.	c #988B78",
"}.	c #CCBBA9",
"|.	c #DAC8B5",
"1.	c #68614C",
"2.	c #776C5A",
"3.	c #756A57",
"4.	c #C1B19E",
"5.	c #BCAC98",
"6.	c #877C67",
"7.	c #B1A28E",
"8.	c #A69784",
"9.	c #6C634F",
"0.	c #A89B88",
"a.	c #EBD8C6",
"b.	c #827865",
"c.	c #746A57",
"d.	c #867C69",
"e.	c #978B78",
"f.	c #BAAA98",
"g.	c #D6C4B2",
"h.	c #DFCDBB",
"i.	c #D0BFAD",
"j.	c #807663",
"k.	c #F4E0CE",
"l.	c #F4DFCE",
"m.	c #A99B87",
"n.	c #A89A87",
"o.	c #E9D5C3",
"p.	c #A59683",
"q.	c #AA9C89",
"r.	c #C4B4A2",
"s.	c #8A806D",
"t.	c #A49584",
"u.	c #D8C5B3",
"v.	c #F6E1D0",
"w.	c #B9AA97",
"x.	c #AB9C88",
"y.	c #B1A28F",
"z.	c #D3C1AE",
"A.	c #BDAD9A",
"B.	c #F1DCCB",
"C.	c #B2A491",
"D.	c #7A705D",
"E.	c #786E5B",
"F.	c #B0A290",
"G.	c #E3D0BE",
"H.	c #F7E3D1",
"I.	c #E9D5C4",
"J.	c #F0DCCA",
"K.	c #F5E1D0",
"L.	c #FAE5D4",
"M.	c #9D907D",
"N.	c #DFCCBA",
"O.	c #F3DFCD",
"P.	c #A49683",
"Q.	c #A49783",
"R.	c #948874",
"S.	c #EBD7C6",
"T.	c #978A76",
"U.	c #BDAD9B",
"V.	c #988976",
"W.	c #7D7260",
"X.	c #7F7561",
"Y.	c #F0DCCB",
"Z.	c #D4C2B0",
"`.	c #A39581",
" +	c #AD9F8B",
".+	c #F5E0CF",
"++	c #D2C1AE",
"@+	c #706855",
"#+	c #B0A28F",
"$+	c #ECD9C7",
"%+	c #918572",
"&+	c #8A7E6C",
"*+	c #8A7E6B",
"=+	c #7F7461",
"-+	c #A39683",
";+	c #EDD9C7",
">+	c #CDBCA9",
",+	c #D2C1AF",
"'+	c #F7E2D0",
")+	c #B8A996",
"!+	c #736A56",
"~+	c #DCC9B7",
"{+	c #E5D1BF",
"]+	c #908470",
"^+	c #AFA08D",
"/+	c #DBC9B6",
"(+	c #A0937F",
"_+	c #A49583",
":+	c #B4A593",
"<+	c #CDBBA9",
"[+	c #C2B29F",
"}+	c #706753",
"|+	c #877C69",
"1+	c #C9B8A5",
"2+	c #E2CFBD",
"3+	c #C9B9A7",
"4+	c #A19481",
"5+	c #BBAC99",
"6+	c #F1DDCB",
"7+	c #A69885",
"8+	c #A69884",
"9+	c #D5C3B0",
"0+	c #A39582",
"a+	c #948774",
"b+	c #90846F",
"c+	c #DBC8B6",
"d+	c #D3C2B0",
"e+	c #716855",
"f+	c #9E907D",
"g+	c #9E907B",
"h+	c #837764",
"i+	c #E1CEBB",
"j+	c #554F3A",
"k+	c #6C644F",
"l+	c #867B66",
"m+	c #918571",
"n+	c #8C806D",
"o+	c #807562",
"p+	c #6F6653",
"q+	c #BDAD99",
"r+	c #E0CDBB",
"s+	c #EFDAC9",
"t+	c #AEA08C",
"u+	c #DCCAB8",
"v+	c #C0B09E",
"w+	c #9B8D79",
"x+	c #EFDBC9",
"y+	c #968975",
"z+	c #F9E4D2",
"A+	c #A0927F",
"B+	c #DAC8B6",
"C+	c #887C69",
"D+	c #544E3A",
"E+	c #948671",
"F+	c #A29480",
"G+	c #8D816C",
"H+	c #A59885",
"I+	c #F7E2D1",
"J+	c #AB9D8B",
"K+	c #5A5341",
"L+	c #69614E",
"M+	c #A49684",
"N+	c #EFDBCA",
"O+	c #857A67",
"P+	c #F3DFCE",
"Q+	c #B6A793",
"R+	c #C3B29F",
"S+	c #CAB9A6",
"T+	c #B3A491",
"U+	c #A09280",
"V+	c #D0BFAC",
"W+	c #C2B29E",
"X+	c #DBC9B7",
"Y+	c #ECD8C7",
"Z+	c #807561",
"`+	c #847864",
" @	c #7D735E",
".@	c #655C48",
"+@	c #A99C89",
"@@	c #B6A795",
"#@	c #A09380",
"$@	c #C7B6A5",
"%@	c #605947",
"&@	c #8A7F6D",
"*@	c #ECD8C6",
"=@	c #E6D2C1",
"-@	c #B3A390",
";@	c #E6D2C0",
">@	c #BCAC9A",
",@	c #A59784",
"'@	c #C0AF9C",
")@	c #AC9E8B",
"!@	c #968A75",
"~@	c #746B5A",
"{@	c #9D907F",
"]@	c #C3B3A0",
"^@	c #F2DECC",
"/@	c #796F5C",
"(@	c #E1CEBD",
"_@	c #BFAE9B",
":@	c #756C58",
"<@	c #C6B5A3",
"[@	c #EBD7C5",
"}@	c #A29481",
"|@	c #F8E3D2",
"1@	c #8B806D",
"2@	c #C5B5A3",
"3@	c #DAC7B5",
"4@	c #A89986",
"5@	c #706551",
"6@	c #867A68",
"7@	c #A69886",
"8@	c #A59785",
"9@	c #857A68",
"0@	c #EAD6C4",
"a@	c #887D6A",
"b@	c #B8A896",
"c@	c #6B6450",
"d@	c #9F9380",
"e@	c #837966",
"f@	c #928774",
"g@	c #D0BEAC",
"h@	c #A99B88",
"i@	c #665D49",
"j@	c #E0CEBC",
"k@	c #E2CEBC",
"l@	c #958975",
"m@	c #C6B6A3",
"n@	c #685F4D",
"o@	c #CEBDAB",
"p@	c #D6C4B1",
"q@	c #C3B2A0",
"r@	c #EAD6C5",
"s@	c #A89A88",
"t@	c #A09381",
"u@	c #F8E2D1",
"v@	c #D2C0AE",
"w@	c #8A7D6A",
"x@	c #817663",
"y@	c #B7A795",
"z@	c #968A78",
"A@	c #655D49",
"B@	c #776E5B",
"C@	c #AD9F8C",
"D@	c #CFBEAC",
"E@	c #908571",
"F@	c #AA9C8A",
"G@	c #C2B19F",
"H@	c #C6B5A4",
"I@	c #7E7461",
"J@	c #867B69",
"K@	c #CDBCAA",
"L@	c #DECBB9",
"M@	c #918573",
"N@	c #968976",
"O@	c #897D69",
"P@	c #9F927E",
"Q@	c #C9B9A6",
"R@	c #9A8D79",
"S@	c #A19381",
"T@	c #6C6350",
"U@	c #B5A693",
"V@	c #8E8370",
"W@	c #7D7360",
"X@	c #E4D1BE",
"Y@	c #9C907E",
"Z@	c #E8D4C3",
"`@	c #B9AA96",
" #	c #D5C3B1",
".#	c #DBC8B7",
"+#	c #6A624F",
"@#	c #857A65",
"##	c #AB9D89",
"$#	c #817662",
"%#	c #504A37",
"&#	c #796E5D",
"*#	c #CDBBAA",
"=#	c #C6B5A2",
"-#	c #4D4836",
";#	c #6F6753",
">#	c #8F8370",
",#	c #8E836F",
"'#	c #948975",
")#	c #A59783",
"!#	c #978B77",
"~#	c #6A614E",
"{#	c #6B624F",
"]#	c #625B48",
"^#	c #766C59",
"/#	c #615A46",
"(#	c #726955",
"_#	c #B6A694",
":#	c #E2CEBD",
"<#	c #FBE5D5",
"[#	c #998C79",
"}#	c #E9D6C4",
"|#	c #C1B19D",
"1#	c #928672",
"2#	c #847865",
"3#	c #595240",
"4#	c #BCAB99",
"5#	c #F2DECD",
"6#	c #C4B4A0",
"7#	c #7A715E",
"8#	c #B3A592",
"9#	c #DDCAB8",
"0#	c #928673",
"a#	c #E8D5C3",
"b#	c #988B77",
"c#	c #827863",
"d#	c #E6D3C1",
"e#	c #9C8F7D",
"f#	c #746B57",
"g#	c #D4C2AF",
"h#	c #938774",
"i#	c #C4B3A1",
"j#	c #928671",
"k#	c #AD9E8C",
"l#	c #635D49",
"m#	c #D8C6B4",
"n#	c #A49582",
"o#	c #D1BFAD",
"p#	c #867B67",
"q#	c #786F5B",
"r#	c #AFA18D",
"s#	c #E1CEBC",
"t#	c #DFCCB9",
"u#	c #645C48",
"v#	c #A79A87",
"w#	c #F2DDCB",
"x#	c #675F4B",
"y#	c #A39684",
"z#	c #AFA18E",
"A#	c #E2D0BE",
"B#	c #8B7F6C",
"C#	c #DAC7B6",
"D#	c #857A66",
"E#	c #58503E",
"F#	c #D3C1AF",
"G#	c #B4A591",
"H#	c #E5D1C0",
"I#	c #A79987",
"J#	c #524D39",
"K#	c #BEAE9B",
"L#	c #A29482",
"M#	c #CABAA8",
"N#	c #BEAF9C",
"O#	c #A39583",
"P#	c #A19380",
"Q#	c #8F8471",
"R#	c #C5B4A2",
"S#	c #6D6451",
"T#	c #58513C",
"U#	c #B7A895",
"V#	c #EBD6C4",
"W#	c #A49682",
"X#	c #E1CDBB",
"Y#	c #867B68",
"Z#	c #756C5A",
"`#	c #C2B19D",
" $	c #CFBEAB",
".$	c #C2B2A0",
"+$	c #68604D",
"@$	c #B6A794",
"#$	c #C0B09D",
"$$	c #625B46",
"%$	c #887D69",
"&$	c #C6B5A1",
"*$	c #DCC9B6",
"=$	c #8A7F6B",
"-$	c #BAAA97",
";$	c #E5D2BF",
">$	c #9A8C79",
",$	c #E2CFBE",
"'$	c #615948",
")$	c #6D6551",
"!$	c #857B67",
"~$	c #CBBAA8",
"{$	c #C7B6A3",
"]$	c #998D79",
"^$	c #D7C5B2",
"/$	c #A0937E",
"($	c #766D58",
"_$	c #AA9C88",
":$	c #D6C3B1",
"<$	c #4A4434",
"[$	c #A29582",
"}$	c #746B59",
"|$	c #8F8470",
"1$	c #9C8F7C",
"2$	c #BBAB98",
"3$	c #BEAF9D",
"4$	c #958874",
"5$	c #9B8D7A",
"6$	c #AE9F8D",
"7$	c #968A77",
"8$	c #A79884",
"9$	c #F8E3D1",
"0$	c #958875",
"a$	c #5D5644",
"b$	c #F1DCCA",
"c$	c #817764",
"d$	c #CEBCAA",
"e$	c #9F9281",
"f$	c #655D4B",
"g$	c #847966",
"h$	c #9F917D",
"i$	c #B0A18F",
"j$	c #9E917D",
"k$	c #A79885",
"l$	c #67604E",
"m$	c #675E4C",
"n$	c #E4D0BE",
"o$	c #625A48",
"p$	c #BBAB9A",
"q$	c #998B78",
"r$	c #A59884",
"s$	c #A99B89",
"t$	c #A99B8A",
"u$	c #AC9D89",
"v$	c #F6E2D0",
"w$	c #D1BFAC",
"x$	c #605A46",
"y$	c #4B4634",
"z$	c #A29483",
"A$	c #7C7260",
"B$	c #6F6654",
"C$	c #8D826F",
"D$	c #C7B7A4",
"E$	c #DFCDBA",
"F$	c #7E7561",
"G$	c #E8D4C2",
"H$	c #C8B8A6",
"I$	c #9B8E7A",
"J$	c #C7B6A4",
"K$	c #B0A18E",
"L$	c #544D3A",
"M$	c #B5A794",
"N$	c #6B6350",
"O$	c #D3C2AF",
"P$	c #908471",
"Q$	c #EEDAC9",
"R$	c #BFAF9C",
"S$	c #877D69",
"T$	c #796F5B",
"U$	c #9F927F",
"V$	c #8F8371",
"W$	c #D0BEAD",
"X$	c #766D59",
"Y$	c #958976",
"Z$	c #877C6A",
"`$	c #D4C3B0",
" %	c #988B79",
".%	c #827864",
"+%	c #DDCAB7",
"@%	c #B4A490",
"#%	c #5D5642",
"$%	c #D8C6B3",
"%%	c #6D6552",
"&%	c #B2A390",
"*%	c #938673",
"=%	c #D7C5B3",
"-%	c #CAB8A6",
";%	c #9C8E7D",
">%	c #B0A18D",
",%	c #BFAE9A",
"'%	c #8D8370",
")%	c #5D5541",
"!%	c #DECBB8",
"~%	c #CBB9A7",
"{%	c #F7E1D1",
"]%	c #9C8F7E",
"^%	c #9A8D7B",
"/%	c #BBAA97",
"(%	c #AB9C89",
"_%	c #59523E",
":%	c #988A79",
"<%	c #7B705C",
"[%	c #847964",
"}%	c #867C68",
"|%	c #817762",
"1%	c #6E6552",
"2%	c #BAAB99",
"3%	c #CEBCA9",
"4%	c #847A66",
"5%	c #847965",
"6%	c #8F826F",
"7%	c #7F7562",
"8%	c #AC9E8A",
"9%	c #EED9C8",
"0%	c #AC9D8A",
"a%	c #9B8F7B",
"b%	c #B0A08D",
"c%	c #A59886",
"d%	c #4C4836",
"e%	c #B8A795",
"f%	c #C8B7A6",
"g%	c #877B67",
"h%	c #B4A491",
"i%	c #8B7F6B",
"j%	c #B3A492",
"k%	c #AB9E8B",
"l%	c #908472",
"m%	c #534C3A",
"n%	c #B7A896",
"o%	c #CCBAA8",
"p%	c #BCAC99",
"q%	c #C3B2A1",
"r%	c #A99C88",
"s%	c #DFCCBB",
"t%	c #D2C0AD",
"u%	c #E0CEBB",
"v%	c #514C39",
"w%	c #7B705E",
"x%	c #978A78",
"y%	c #968977",
"z%	c #D7C6B3",
"A%	c #9C8E7B",
"B%	c #A19482",
"C%	c #776E5A",
"D%	c #B3A38F",
"E%	c #A39682",
"F%	c #948674",
"G%	c #746B58",
"H%	c #E0CDBC",
"I%	c #9C907C",
"J%	c #7D7460",
"K%	c #AB9E8A",
"L%	c #A99A86",
"M%	c #E3D1BE",
"N%	c #4D4735",
"O%	c #B2A391",
"P%	c #B1A18E",
"Q%	c #EAD6C3",
"R%	c #AA9B88",
"S%	c #9B8E7C",
"T%	c #C0AF9D",
"U%	c #6D6450",
"V%	c #665E4B",
"W%	c #615A47",
"X%	c #6F6754",
"Y%	c #6B6251",
"Z%	c #635B48",
"`%	c #746A58",
" &	c #837867",
"                                                                                                                                ",
"                                                                                                                                ",
"                                                                                                                                ",
"                                                                                                                                ",
"                                                                                                                                ",
"                                                                                                                                ",
"                                                                                                                                ",
"                                                                                                                                ",
"                                                                                                                                ",
"                                                                                                                                ",
"                                                                                                                                ",
"                                                              . + @ # $ % & * = - ; >                                           ",
"                                                  , ' ) ! ~ { ] ^ / ( _ : < [ } | 1 2 3 4 { 5 6 7 8                             ",
"                                            9 0 a b c d e e f g h i j k l m n o p q r s t u v w x j y z A B                     ",
"                                    C D E F G H I J K e e e e L M N O P Q R S T U V W X Y Z e e e e e `  ...+.@.                ",
"                                #.$.%.&.*.=.-.;.e e >.,.'.).!.@ ~.{.s ].^./.(.: e e : _.:.<.4 : e e [ [.}.e e |.1.2.            ",
"                          3.i 4.5.6.7.8.9.0.: e a.V b.c.d.e./ f.} g.h.L i.j.k.e e e e e e l.m.n.: o.p.q.e e e L q r.s.          ",
"                      7 t.u.v.w.x.y.z.A.4 e B.C.D.E.F.G.H.>.I.2 J.K.e e L.M.N.e O.e e e e e : P.Q.R.).e e e e S.T.U.k V.        ",
"                    W.X.Y.Z.`. +&.e e .+e ++@ @+#+$+L.Z.4 %+&+*+=+-+;+e e y.A.e >+,+e e e e e '+)+!+~+e e e e e {+]+^+/++       ",
"                  %+(+_+:+P.<+e e e v.[+p }+|+1+2+3+4+M.5+K 6+l.7+d e e e g.8+: 9+Q.O e e e e e e 4 0+e e e e e L.a+b+c+d+e+    ",
"                f+T.g+h+!.i+e e e J @ j+k+l+m+n+o+p+p L.e e e e q+r+e s+e : t+u+e v+w+x+e e e e e (.y+J.e e e e z+A+B+: < C+    ",
"            D+X E+F+G+H+I+e e e J+K+L+M+O _.x+N+N+r.O+;+e e e e x+e P+Q+k.e R+S+e e q.T+e e e e e : U+V+e e ;.W+e X+Y+e &.Z+    ",
"          `+ @.@+@@@#@e e e e $@%@&@d+e e e e e e J.@ *@e e e e e e N |+=@e -@Z.e e ;@T.L e e e e e >@P e e Y.]+2 e Y+2 L.,@    ",
"        d.'@b+)@1 !@~+e e e V+~@{@B.e e e e e e e L.]@^@e e e e e e l /@(@P+_@.+e e (.:@<@e e e e [@}@a+|@e L.1@2@e 3@F+!.4@5@  ",
"      6@i.7@8@e '.E : e e 6+9@b.0@e e e e v.l.e e e K.e e e e e e e ..a@*@e N+e e e b@c@+ [@e e e : d@e@I+e e f@v+e e M g@h@i@  ",
"      & j@:@k@N+l@m@e e e @@n@o@e e e e e N.y.}.e e e e e e e e e p@P.q@e e e e r@s@O+>+T t@u@e e e S+@.: e $+Z+v@e e e e z+w@  ",
"      x@y@q o.z@A@2 e e k B@C@e e e e e e e D@E@F@: e e e e e e G@|+H@e e L.=@V I@J@K@e L@D M@O e e w.#+e e )@N@: e e e e z+O@  ",
"    ; m U+V 0@P@]+Q@e s+n+].(.O.x+;+;+Y.l.e e r+b R@V+[@*@2 g.S@o+T@y@u+U@V@W@q ]@L e e e X@Y@W@Z@e `@ #e .#+#@###K@e e e I+$#%#",
"  &#*#O.N@o.e l Z.t+=#T -#;#>#,#'#f+x.)#!#^@e e L.4+~#C+{#]#^#M+=@w./#(#>#_#:#<#e : e e e e z.[#I+e }#e e 7+P 9+|#{ D@e e k.1#2#",
"3#4#e 9+a 5#e e e 6#7#- 1@8#9#o.5#v.L.&.0#a#e e e Z.c b#c#@@d#e e : e#f#f : e e |@g#v@e e : M.w.e e e e 6+T.$+e : h#i#e e [@j#k#",
"l#m#.+n#W@o#e e x+p#q#i.L.e e e e e e e r#s#e e e t#u#v#;+e H.e e e w#v#x#y#L.e e N.m.z#: (.*+d#e r@a#e A#B#.+e : ~ i#e e C#D#}@",
"E#J e 2 F#G#H#e I#J#K#e 6+c+e e e e e e (.e e e e L#U+: e 5#S+o.e e e e M#~.N#e e e ^ c O#:.P#: e m L#e Z@a >+e L.Q#R#e e =@t S#",
"  H+e e e k.1 C@T#'#L.e [@/ J e e e e e e e e e U#1#V#e e e v+-.: e e e e o@W#L.e e e X#Y#Z#g.e e L@D.K e 4.`#M < c  $e e e .$# ",
"  +$@$;+#$)+w u#$$9+e e e g.-+o@e e e e e e e .+%+g@e e e e Y.%$;@e e e e z+&$k.L.e e e *$=$-$e e ;$B -+e e e e |@>$,$e e e m#'$",
"    )$2 P.P k !$p e e e e e }.1#Y+^@~$F U#{$s#L.]$Z.e e e e z+[.m#e e e e e I+N+2@< e e e ^$/$>.e e y.($p@e e e e _$:$e e s+h#  ",
"  <$[$e 6+e L }$C@e e e e e < |$f@>#1$2$3$r#4$S@5$C@e e e e e 6$e#L.e e e e e e 7$+.e e e x+8$9$e e e )@R.'+e e e j 0$} g.[$Q   ",
"  a$g.e e e .+d.~ : e e e e b$c$%+d$<#e e e S.e$f$g$M e e e e [@y 7+e e e e e [ h$g.e e e C@i$e ^@e e e j$..e e e k$,@5.-@^+3 l$",
"  m$n$e e e e !.o$p$d#L.e 3@q$4 |@e e e e e e L 1@a$X+e e e e e |@r$s$e e e ;+{@t$e e e K@N@r@H.=#v@e e u$V+e e v$>#X+>.w$: Z.x$",
"  y$z$: e e 5#A$B$C$0#D$E$F$s$e e e e e e e e e Q@s 2+e e e e e e 6+4$g.~+T+O+Q#B.e e G$)#..e e H$I$|@: J$r@e e J U+L.e K$w.z#  ",
"    L$i$: e M$N$O$< k.O.G.P$3$Q$e e e e e e e e v.R$J.e : e e e e : S$T$[#U$V$!$0# +G@1$i$e e e Y+m+N e l.e 2 -@H W$e e (.l@X$  ",
"      # Y$h@B$Z$L.e e e e `$ %.%! 1+J.v$e e e e e : e e +%@%v.e e U#$ R#|@e : (.h.K@#@#%O e e e : E _#$%=#h@0+:.;+e e ^@e z@    ",
"        %%&%*%b.v$e e e e e L.=%z#>#%+P#h@-%L.e e e e e : P ;%|@/+@ m e e e : e e e < R.g.e e e : E@{ >%-$,+l.e K.6+g@,%;+'%    ",
"        )%U@!%~.`$e e e e x+c+e e H.Q$N+~%f+A+o#: e e e e {%]%^%1#n e e e e ++a.e e e /%g#e e e @$/ 6+e e e '+(%M.1$=.p@o#e+    ",
"          _%:%<%[%g#1 ;@3$}%T+e e e e e e *@>%|%R@J l.e e e O 1%2%e e e e e T+R$e e e u@L.e < :+b 3%g.: e e m I$;.l.L.d#4%      ",
"              $.5%=$6%D 7%o+y#*@e e e e e 8%a@J d b#,#L@e e 9%%+1 e e e e e g.0%e e e e e m#a%E K 4 '.e e /+W#b%2$e e c%d%      ",
"                M.w$[@;.g#e%Y$R.f%: e J.m Y#].: e ;.g%c+e e G.,#l.e e e e e =#h%e e e v.:+l@2%: v.i%,@ $j%[$m 5#q.J$k%#         ",
"                  E.l%Y#}+m%n%o@}@o%v@a@!.p%[#q%e G$q@e e H#U+r%e e e e e l.a%U.s%t%T+a%r$u%e e : <.4+G#-.d#e e G.I$v%          ",
"                            w%x%y%5%}+7#B.e z%A%(%d$=%} [$m+B%(.e e e e e ` C%M.-.D%#$E$e e e e V+E%v.e #+3@: ;+m F%            ",
"                                        m e e d#2$P#) G%n G$e e e e e e O$)#g.< e O.G$j@H%|@Y.)+-.F#e v.g$*+I%J%                ",
"                                        A$4 [@e e 1 @.o@e e e e e e e ++K%O$L.K#j `.P#v#P@L%{  .*@e M%t@N%                      ",
"                                            z O%r+q@h$: e e e 2+s#F#P%0+`$Q%R%8%;@P+< e : &.4@E./ j$W@                          ",
"                                                T@+$)$S%:+T%#@U%V%W%X% #v.} v+e e e U.9+h.z#z                                   ",
"                                                                    Y%k e ^@e e e $@Z%c.`%                                      ",
"                                                                      %+g.e e Y.:. &                                            ",
"                                                                        Z+ %! ].                                                ",
"                                                                                                                                ",
"                                                                                                                                ",
"                                                                                                                                ",
"                                                                                                                                ",
"                                                                                                                                ",
"                                                                                                                                ",
"                                                                                                                                ",
"                                                                                                                                ",
"                                                                                                                                "};
