<?xml version="1.0" encoding="UTF-8" standalone="no"?>
<!-- Created with Inkscape (http://www.inkscape.org/) -->

<svg
   xmlns:dc="http://purl.org/dc/elements/1.1/"
   xmlns:cc="http://creativecommons.org/ns#"
   xmlns:rdf="http://www.w3.org/1999/02/22-rdf-syntax-ns#"
   xmlns:svg="http://www.w3.org/2000/svg"
   xmlns="http://www.w3.org/2000/svg"
   xmlns:sodipodi="http://sodipodi.sourceforge.net/DTD/sodipodi-0.dtd"
   xmlns:inkscape="http://www.inkscape.org/namespaces/inkscape"
   width="496.36749"
   height="496.36874"
   id="svg3319"
   version="1.1"
   inkscape:version="0.48.2 r9819"
   sodipodi:docname="wrong.svg">
  <defs
     id="defs3321">
    <clipPath
       clipPathUnits="userSpaceOnUse"
       id="clipPath280">
      <path
         inkscape:connector-curvature="0"
         d="m 0,14400 14400,0 L 14400,0 0,0 0,14400 z"
         id="path282" />
    </clipPath>
    <clipPath
       clipPathUnits="userSpaceOnUse"
       id="clipPath260">
      <path
         inkscape:connector-curvature="0"
         d="m 7260.31,7200.492 c 0,-1.564 0.022,-3.126 0.058,-4.683 l 0,0 c 54.061,-41.441 121.67,-66.084 195.043,-66.084 l 0,0 c 71.108,0 136.802,23.143 189.992,62.282 l 0,0 c 0.126,2.819 0.202,5.641 0.202,8.485 l 0,0 c 0,106.228 -86.423,192.648 -192.647,192.648 l 0,0 c -106.228,0 -192.648,-86.42 -192.648,-192.648"
         id="path262" />
    </clipPath>
    <linearGradient
       x1="0"
       y1="0"
       x2="1"
       y2="0"
       gradientUnits="userSpaceOnUse"
       gradientTransform="matrix(-1.53e-5,280.12659,280.12659,1.53e-5,7452.9561,7104.1699)"
       spreadMethod="pad"
       id="linearGradient268">
      <stop
         style="stop-opacity:1;stop-color:#cf3333"
         offset="0"
         id="stop270" />
      <stop
         style="stop-opacity:1;stop-color:#ffffff"
         offset="1"
         id="stop272" />
    </linearGradient>
    <clipPath
       clipPathUnits="userSpaceOnUse"
       id="clipPath240">
      <path
         inkscape:connector-curvature="0"
         d="m 7254.409,7200.496 c 0,-109.654 88.895,-198.549 198.549,-198.549 l 0,0 c 109.653,0 198.545,88.895 198.545,198.549 l 0,0 c 0,109.653 -88.892,198.546 -198.545,198.546 l 0,0 c -109.654,0 -198.549,-88.893 -198.549,-198.546"
         id="path242" />
    </clipPath>
    <radialGradient
       fx="0"
       fy="0"
       cx="0"
       cy="0"
       r="1"
       gradientUnits="userSpaceOnUse"
       gradientTransform="matrix(477.69171,0,0,-477.69171,7473.5977,7435.4082)"
       spreadMethod="pad"
       id="radialGradient248">
      <stop
         style="stop-opacity:1;stop-color:#c63f3f"
         offset="0"
         id="stop250" />
      <stop
         style="stop-opacity:1;stop-color:#920000"
         offset="1"
         id="stop252" />
    </radialGradient>
    <clipPath
       clipPathUnits="userSpaceOnUse"
       id="clipPath220">
      <path
         inkscape:connector-curvature="0"
         d="m 7230.82,7200.496 c 0,-122.682 99.452,-222.137 222.138,-222.137 l 0,0 c 122.678,0 222.133,99.455 222.133,222.137 l 0,0 c 0,122.678 -99.455,222.133 -222.133,222.133 l 0,0 c -122.686,0 -222.138,-99.455 -222.138,-222.133"
         id="path222" />
    </clipPath>
    <linearGradient
       x1="0"
       y1="0"
       x2="1"
       y2="0"
       gradientUnits="userSpaceOnUse"
       gradientTransform="matrix(-1.53e-5,-187.2336,-187.2336,1.53e-5,7452.9551,7262.8198)"
       spreadMethod="pad"
       id="linearGradient228">
      <stop
         style="stop-opacity:1;stop-color:#6d6f71"
         offset="0"
         id="stop230" />
      <stop
         style="stop-opacity:1;stop-color:#f1f1f2"
         offset="1"
         id="stop232" />
    </linearGradient>
    <clipPath
       clipPathUnits="userSpaceOnUse"
       id="clipPath200">
      <path
         inkscape:connector-curvature="0"
         d="m 7226.397,7200.496 c 0,-125.125 101.436,-226.56 226.561,-226.56 l 0,0 c 125.125,0 226.557,101.435 226.557,226.56 l 0,0 c 0,125.121 -101.432,226.557 -226.557,226.557 l 0,0 c -125.125,0 -226.561,-101.436 -226.561,-226.557"
         id="path202" />
    </clipPath>
    <linearGradient
       x1="0"
       y1="0"
       x2="1"
       y2="0"
       gradientUnits="userSpaceOnUse"
       gradientTransform="matrix(-206.39983,343.50836,343.50836,206.39983,7583.5498,6983.1484)"
       spreadMethod="pad"
       id="linearGradient208">
      <stop
         style="stop-opacity:1;stop-color:#6d6f71"
         offset="0"
         id="stop210" />
      <stop
         style="stop-opacity:1;stop-color:#f1f1f2"
         offset="1"
         id="stop212" />
    </linearGradient>
  </defs>
  <sodipodi:namedview
     id="base"
     pagecolor="#ffffff"
     bordercolor="#666666"
     borderopacity="1.0"
     inkscape:pageopacity="0.0"
     inkscape:pageshadow="2"
     inkscape:zoom="0.35"
     inkscape:cx="206.75515"
     inkscape:cy="202.47008"
     inkscape:document-units="px"
     inkscape:current-layer="layer1"
     showgrid="false"
     fit-margin-top="0"
     fit-margin-left="0"
     fit-margin-right="0"
     fit-margin-bottom="0"
     inkscape:window-width="647"
     inkscape:window-height="493"
     inkscape:window-x="649"
     inkscape:window-y="25"
     inkscape:window-maximized="0" />
  <metadata
     id="metadata3324">
    <rdf:RDF>
      <cc:Work
         rdf:about="">
        <dc:format>image/svg+xml</dc:format>
        <dc:type
           rdf:resource="http://purl.org/dc/dcmitype/StillImage" />
        <dc:title />
      </cc:Work>
    </rdf:RDF>
  </metadata>
  <g
     inkscape:label="Ebene 1"
     inkscape:groupmode="layer"
     id="layer1"
     transform="translate(-143.24485,-238.4635)">
    <g
       transform="matrix(1.25,0,0,-1.25,-8924.7664,9487.266)"
       id="g236">
      <g
         id="g238"
         clip-path="url(#clipPath240)">
        <g
           id="g244">
          <g
             id="g246">
            <path
               inkscape:connector-curvature="0"
               d="m 7254.409,7200.496 c 0,-109.654 88.895,-198.549 198.549,-198.549 l 0,0 c 109.653,0 198.545,88.895 198.545,198.549 l 0,0 c 0,109.653 -88.892,198.546 -198.545,198.546 l 0,0 c -109.654,0 -198.549,-88.893 -198.549,-198.546"
               style="fill:url(#radialGradient248);stroke:none"
               id="path254" />
          </g>
        </g>
      </g>
    </g>
    <g
       transform="matrix(1.25,0,0,-1.25,-8924.7664,9487.266)"
       id="g256">
      <g
         id="g258"
         clip-path="url(#clipPath260)">
        <g
           id="g264">
          <g
             id="g266">
            <path
               inkscape:connector-curvature="0"
               d="m 7260.31,7200.492 c 0,-1.564 0.022,-3.126 0.058,-4.683 l 0,0 c 54.061,-41.441 121.67,-66.084 195.043,-66.084 l 0,0 c 71.108,0 136.802,23.143 189.992,62.282 l 0,0 c 0.126,2.819 0.202,5.641 0.202,8.485 l 0,0 c 0,106.228 -86.423,192.648 -192.647,192.648 l 0,0 c -106.228,0 -192.648,-86.42 -192.648,-192.648"
               style="fill:url(#linearGradient268);stroke:none"
               id="path274" />
          </g>
        </g>
      </g>
    </g>
    <g
       transform="matrix(1.25,0,0,-1.25,-8924.7664,9487.266)"
       id="g276">
      <g
         id="g278"
         clip-path="url(#clipPath280)">
        <g
           id="g284"
           transform="translate(7583.0557,7103.1729)">
          <path
             inkscape:connector-curvature="0"
             d="m 0,0 -87.924,86.146 66.631,103.498 -50.388,32.439 -59.947,-93.117 -79.103,77.505 -41.941,-42.805 87.924,-86.146 -66.632,-103.499 50.389,-32.439 59.947,93.117 L -41.94,-42.806 0,0 z"
             style="fill:#ffffff;fill-opacity:1;fill-rule:nonzero;stroke:none"
             id="path286" />
        </g>
      </g>
    </g>
  </g>
</svg>
