<?xml version="1.0" encoding="UTF-8" standalone="no"?>
<!-- Created with Inkscape (http://www.inkscape.org/) -->

<svg
   xmlns:dc="http://purl.org/dc/elements/1.1/"
   xmlns:cc="http://creativecommons.org/ns#"
   xmlns:rdf="http://www.w3.org/1999/02/22-rdf-syntax-ns#"
   xmlns:svg="http://www.w3.org/2000/svg"
   xmlns="http://www.w3.org/2000/svg"
   xmlns:sodipodi="http://sodipodi.sourceforge.net/DTD/sodipodi-0.dtd"
   xmlns:inkscape="http://www.inkscape.org/namespaces/inkscape"
   height="60.0000000"
   id="svg1"
   inkscape:version="0.48.2 r9819"
   sodipodi:docname="tab_add.svg"
   sodipodi:version="0.32"
   version="1.0"
   width="60.0000000"
   x="0"
   y="0"
   inkscape:export-filename="/home/jonathan/Desktop/voc2brain_pictures/vokabel-Kärtchen/ftbookmarks_list_add.png"
   inkscape:export-xdpi="90"
   inkscape:export-ydpi="90">
  <sodipodi:namedview
     bordercolor="#666666"
     borderopacity="1.0"
     id="base"
     inkscape:cx="17.637367"
     inkscape:cy="-28.61418"
     inkscape:pageopacity="0.0"
     inkscape:pageshadow="2"
     inkscape:window-height="688"
     inkscape:window-width="1366"
     inkscape:window-x="0"
     inkscape:window-y="25"
     inkscape:zoom="2.56"
     pagecolor="#ffffff"
     showgrid="false"
     inkscape:window-maximized="1"
     inkscape:current-layer="svg1" />
  <metadata
     id="metadata3">
    <rdf:RDF>
      <cc:Work
         rdf:about="">
        <dc:title>Part of the Flat Icon Collection (Wed Aug 25 23:29:46 2004)</dc:title>
        <dc:description />
        <dc:subject>
          <rdf:Bag>
            <rdf:li>hash</rdf:li>
            <rdf:li />
            <rdf:li>action</rdf:li>
            <rdf:li>computer</rdf:li>
            <rdf:li>icons</rdf:li>
            <rdf:li>theme</rdf:li>
          </rdf:Bag>
        </dc:subject>
        <dc:publisher>
          <cc:Agent
             rdf:about="http://www.openclipart.org">
            <dc:title>Danny Allen</dc:title>
          </cc:Agent>
        </dc:publisher>
        <dc:creator>
          <cc:Agent>
            <dc:title>Danny Allen</dc:title>
          </cc:Agent>
        </dc:creator>
        <dc:rights>
          <cc:Agent>
            <dc:title>Danny Allen</dc:title>
          </cc:Agent>
        </dc:rights>
        <dc:date />
        <dc:format>image/svg+xml</dc:format>
        <dc:type
           rdf:resource="http://purl.org/dc/dcmitype/StillImage" />
        <cc:license
           rdf:resource="http://web.resource.org/cc/PublicDomain" />
        <dc:language>en</dc:language>
      </cc:Work>
      <cc:License
         rdf:about="http://web.resource.org/cc/PublicDomain">
        <cc:permits
           rdf:resource="http://web.resource.org/cc/Reproduction" />
        <cc:permits
           rdf:resource="http://web.resource.org/cc/Distribution" />
        <cc:permits
           rdf:resource="http://web.resource.org/cc/DerivativeWorks" />
      </cc:License>
    </rdf:RDF>
  </metadata>
  <defs
     id="defs3" />
  <path
     inkscape:connector-curvature="0"
     id="path12834-7"
     d="m 8.6661,24.10754 44.595438,0"
     style="fill:#aaaaaa;fill-opacity:1;stroke:#737373;stroke-width:0.34506929;stroke-linecap:butt;stroke-linejoin:miter;stroke-miterlimit:4;stroke-opacity:1;stroke-dasharray:none" />
  <rect
     style="fill:#cccccc;fill-opacity:1;stroke:#4c4c4c;stroke-width:1.644;stroke-linecap:round;stroke-linejoin:round;stroke-miterlimit:4;stroke-opacity:1;stroke-dasharray:none"
     id="rect12832-9"
     width="47.610844"
     height="29.325748"
     x="7.1497383"
     y="19.33918" />
  <path
     style="fill:#aaaaaa;fill-opacity:1;stroke:#737373;stroke-width:0.34506929;stroke-linecap:butt;stroke-linejoin:miter;stroke-miterlimit:4;stroke-opacity:1;stroke-dasharray:none"
     d="m 8.6661,26.570522 44.595438,0"
     id="path12836-5"
     inkscape:connector-curvature="0" />
  <path
     inkscape:connector-curvature="0"
     id="path12838-3"
     d="m 8.6661,29.033502 44.595438,0"
     style="fill:#aaaaaa;fill-opacity:1;stroke:#737373;stroke-width:0.34506929;stroke-linecap:butt;stroke-linejoin:miter;stroke-miterlimit:4;stroke-opacity:1;stroke-dasharray:none" />
  <path
     style="fill:#aaaaaa;fill-opacity:1;stroke:#737373;stroke-width:0.34506929;stroke-linecap:butt;stroke-linejoin:miter;stroke-miterlimit:4;stroke-opacity:1;stroke-dasharray:none"
     d="m 8.6661,31.496482 44.595438,0"
     id="path12840-8"
     inkscape:connector-curvature="0" />
  <path
     inkscape:connector-curvature="0"
     id="path12842-8"
     d="m 8.6661,33.959478 44.595438,0"
     style="fill:#aaaaaa;fill-opacity:1;stroke:#737373;stroke-width:0.34506929;stroke-linecap:butt;stroke-linejoin:miter;stroke-miterlimit:4;stroke-opacity:1;stroke-dasharray:none" />
  <path
     style="fill:#aaaaaa;fill-opacity:1;stroke:#737373;stroke-width:0.34506929;stroke-linecap:butt;stroke-linejoin:miter;stroke-miterlimit:4;stroke-opacity:1;stroke-dasharray:none"
     d="m 8.6661,36.422461 44.595438,0"
     id="path12844-3"
     inkscape:connector-curvature="0" />
  <path
     inkscape:connector-curvature="0"
     id="path12846-1"
     d="m 8.6661,38.88544 44.595438,0"
     style="fill:#aaaaaa;fill-opacity:1;stroke:#737373;stroke-width:0.34506929;stroke-linecap:butt;stroke-linejoin:miter;stroke-miterlimit:4;stroke-opacity:1;stroke-dasharray:none" />
  <path
     style="fill:#aaaaaa;fill-opacity:1;stroke:#737373;stroke-width:0.34506929;stroke-linecap:butt;stroke-linejoin:miter;stroke-miterlimit:4;stroke-opacity:1;stroke-dasharray:none"
     d="m 8.6661,41.348422 44.595438,0"
     id="path12848-8"
     inkscape:connector-curvature="0" />
  <path
     inkscape:connector-curvature="0"
     id="path12850-9"
     d="m 8.6661,43.811418 44.595438,0"
     style="fill:#aaaaaa;fill-opacity:1;stroke:#737373;stroke-width:0.34506929;stroke-linecap:butt;stroke-linejoin:miter;stroke-miterlimit:4;stroke-opacity:1;stroke-dasharray:none" />
  <path
     style="fill:#aaaaaa;fill-opacity:1;stroke:#737373;stroke-width:0.34506929;stroke-linecap:butt;stroke-linejoin:miter;stroke-miterlimit:4;stroke-opacity:1;stroke-dasharray:none"
     d="m 8.6661,46.274399 44.595438,0"
     id="path12852-6"
     inkscape:connector-curvature="0" />
  <g
     transform="translate(471.21059,-1451.8356)"
     id="g13128" />
  <g
     transform="matrix(0.11904207,0,0,0.11192037,3.9502124,-37.487913)"
     id="g4681">
    <g
       transform="matrix(0.46071883,0,0,0.46071883,38.557157,344.14107)"
       id="g3790">
      <path
         inkscape:connector-curvature="0"
         style="fill:#808080;stroke:#000000;stroke-width:1px;stroke-linecap:butt;stroke-linejoin:miter;stroke-opacity:1"
         d="m 430.30592,541.46827 c 0,0 3.01969,-3.01969 3.20842,-4.52953 0.18873,-1.50985 15.66464,-15.28719 15.66464,-15.28719 0,0 -24.34625,-26.98848 -28.49833,-30.7631 -4.15207,-3.77461 -23.21387,-18.68433 -23.21387,-18.68433 l -11.89003,13.77734 c 0,0 -0.75492,2.64223 -2.07604,2.83096 -1.32111,0.18873 -2.26477,0.37746 -2.26477,0.37746 l -2.83096,3.58588 0.5662,1.69858 51.33474,46.99393 z"
         id="path3768" />
      <path
         inkscape:connector-curvature="0"
         style="fill:#000000;stroke:#000000;stroke-width:1px;stroke-linecap:butt;stroke-linejoin:miter;stroke-opacity:1"
         d="m 449.55645,521.65155 136.641,-137.77338 c 0,0 -23.02515,-32.08421 -30.57437,-39.63344 -7.54923,-7.54923 -25.28991,-18.49561 -25.28991,-18.49561 L 398.2217,471.4492 c 0,0 23.78007,20.00545 25.66737,21.89275 1.88731,1.88731 24.91245,28.68706 25.66738,28.3096 z"
         id="path3770" />
      <path
         inkscape:connector-curvature="0"
         style="fill:#000000;fill-opacity:1;stroke:none"
         id="path3772"
         d="m 275.45941,610.37757 c 1.40446,1.39734 3.13487,2.26486 5.02448,2.78384 0.98687,0.13027 2.08913,0.52063 3.07879,0.19147 0.20444,-0.068 0.76565,-0.39515 0.578,-0.28929 -3.02939,1.70896 -6.06924,3.39932 -9.10386,5.09898 0.96186,-0.57647 1.53496,-1.68988 1.85406,-2.74121 -0.029,-0.76168 -1.04779,-1.03988 -1.66332,-1.18979 -1.60781,-0.42678 -2.37222,0.21196 -3.65777,1.01794 3.00175,-1.7246 5.97805,-3.49428 9.00527,-5.17378 0.21864,-0.12131 -0.39436,0.31038 -0.56637,0.49186 -0.2117,0.22334 -0.40589,0.46448 -0.58039,0.71797 -0.62667,0.91029 -0.96025,1.89658 -1.28972,2.93893 -0.55159,2.10162 -0.60931,4.28 -0.66632,6.43869 -0.20997,1.85562 0.20457,3.55394 0.73473,5.30599 0.58585,1.376 1.50303,2.56871 2.1598,3.91112 1.87145,5.52552 -7.23214,7.89506 -12.11583,8.18306 -3.26223,0.10646 -6.52684,0.0784 -9.79029,0.0844 -3.02246,-0.0307 -5.63461,-1.37033 -8.11249,-2.97074 -2.45504,-1.79328 -4.35568,-4.14395 -5.96178,-6.69548 -0.9034,-1.67216 -1.75708,-3.36539 -2.66886,-5.03278 -1.03549,-1.71223 -1.81148,-1.62485 -3.56873,-1.0202 -0.33776,0.0983 -0.68461,0.16953 -1.01329,0.29489 -1.03513,0.39481 -3.22891,1.69913 -2.37824,1.21252 14.34515,-8.20592 9.01018,-5.25595 5.59502,-2.81849 -3.97568,3.00765 -7.67106,5.139 -12.63864,7.35823 -0.87359,0.39027 -2.85729,-2.53663 -3.18012,-3.00725 -1.50069,-2.82321 -2.86408,-5.72782 -4.15452,-8.6547 -0.92292,-1.65834 -1.70764,-3.56822 -3.36609,-4.61445 -2.17466,-0.24085 -4.07151,1.08502 -5.85176,2.1437 2.60258,-1.49554 5.19401,-3.01065 7.80773,-4.48663 0.59047,-0.33344 -1.16539,0.69407 -1.7372,1.05857 -0.34155,0.21772 -2.67448,1.80279 -3.06937,2.03563 -3.57327,2.10691 -7.20839,4.10858 -10.76389,6.24533 -2.7288,1.63993 5.52226,-3.16975 8.28339,-4.75463 -4.06651,2.20539 -7.6237,7.05325 -12.37793,6.48523 -1.0057,-0.12015 -1.90633,-0.66106 -2.80025,-1.09199 -1.23615,-0.4945 -2.67653,-1.29904 -4.06729,-1.01736 -0.30721,0.0622 -0.5888,0.2152 -0.88321,0.3228 -0.37231,0.14759 -0.74742,0.28829 -1.11693,0.44277 -1.53809,0.64303 -1.14772,0.50615 -2.73823,1.29961 -0.49805,0.24846 -1.97876,1.01763 -1.49923,0.73508 8.44489,-4.81973 10.65028,-6.15481 6.73297,-3.80561 -3.96991,2.50169 -6.05072,3.84062 -11.70685,6.64402 -0.31329,0.15528 -0.73475,0.007 -1.03464,-0.17293 -1.41489,-0.84833 -1.7675,-2.87179 -2.17309,-4.29054 -0.3433,-0.79744 -0.5688,-3.7304 -1.96644,-3.79367 -0.42531,-0.0192 -0.87078,0.50038 -1.11498,0.71644 16.09314,-8.81469 10.11352,-6.32753 7.23677,-3.75198 -0.68426,0.61262 -1.31552,1.28724 -1.98953,1.91186 -4.09123,3.32778 -8.66257,6.83286 -14.00802,7.19748 -2.87126,-0.53143 -5.38588,-2.06381 -7.9171,-3.43602 -2.77035,-1.65299 -5.42778,-3.50143 -7.87008,-5.61002 -1.58703,-1.44556 -3.31643,-2.74744 -4.81401,-4.28858 -1.51141,-1.29506 -2.70142,-2.89516 -4.10161,-4.30113 -2.39152,-2.60706 -4.77922,-5.20985 -7.25893,-7.73417 -2.78739,-2.86662 -5.45798,-5.83736 -8.09543,-8.84185 -2.96101,-3.43037 -6.09839,-6.69909 -9.26258,-9.94057 -2.48279,-2.7025 -4.9337,-5.43311 -7.46787,-8.08792 -2.14855,-2.27567 -4.53717,-4.30938 -6.85542,-6.40806 -1.73969,-1.36678 -3.393703,-2.83761 -5.253883,-4.03982 -1.3672,-1.09667 -2.80091,-2.08494 -4.30389,-2.98385 -1.07845,-0.54082 -2.13171,-1.11416 -3.20672,-1.6627 -1.14815,-0.47019 -2.40452,-0.50071 -3.62711,-0.54798 -0.89509,-0.036 -1.82569,-0.0748 -2.67249,0.28434 -0.34717,0.14725 -0.64443,0.39307 -0.97931,0.56647 18.731943,-9.93905 10.15152,-6.88846 7.8734,-4.06413 -0.58728,0.72809 -1.01263,1.55179 -1.41967,2.38705 -0.65939,1.47591 -0.82401,3.0747 -0.91036,4.66889 -0.0526,1.51073 -0.0344,3.02279 -0.0269,4.53411 0.0546,1.45373 -0.0798,2.91909 0.076,4.36687 0.20954,1.36047 0.90418,2.57177 1.40062,3.83916 0.7165,2.34496 1.99245,4.4241 3.18097,6.5481 1.15361,2.13567 2.12559,4.35785 3.2574,6.50406 0.96689,1.54563 1.47222,3.30521 2.24936,4.94526 1.2174,2.48219 2.411253,4.98297 3.467163,7.53857 0.98895,2.35694 2.07567,4.6705 3.13346,6.99665 0.78301,1.66996 1.13871,3.458 1.30667,5.28056 0.0386,1.33779 0.40873,2.63099 0.59786,3.95115 0.18098,1.48391 0.20642,2.98086 0.20849,4.47392 -0.006,1.88635 -0.006,3.77267 -4.7e-4,5.65904 -0.005,1.38353 -0.35151,2.6766 -1.11753,3.82597 -0.67177,0.94112 -0.92529,2.08443 -1.37137,3.13763 -0.31622,0.66278 -0.77118,1.22978 -1.19384,1.82335 0,0 -10.242803,4.5633 -10.242803,4.5633 l 0,0 c 0.32273,-0.69365 0.79509,-1.18458 1.19615,-1.81818 0.7319,-0.9572 0.81758,-2.15308 1.33594,-3.2174 0.75866,-1.10845 1.37798,-1.80332 1.46371,-3.25649 0.009,-1.88112 0.0184,-3.76224 -0.006,-5.6433 -0.0242,-1.44552 -0.0241,-2.89462 -0.1745,-4.33418 -0.16956,-1.34737 -0.56684,-2.65924 -0.6071,-4.0177 -0.10639,-1.71099 -0.36138,-3.40013 -1.06176,-4.98283 -1.01864,-2.35766 -2.12615,-4.67559 -3.1124,-7.04726 -1.02132,-2.54484 -2.18717,-5.03207 -3.4852,-7.44808 -0.79777,-1.62217 -1.35156,-3.34637 -2.26934,-4.90632 -1.06582,-2.1638 -1.97728,-4.39866 -3.11121,-6.52904 -1.24522,-2.14943 -2.60044,-4.24309 -3.40571,-6.61135 -0.513,-1.35306 -1.28105,-2.62054 -1.53868,-4.05918 -0.23926,-1.48682 -0.0709,-3.00343 -0.12861,-4.50501 -0.008,-1.52834 -0.0246,-3.057 0.006,-4.58519 0.0595,-1.70935 0.17637,-3.43048 0.75887,-5.05563 2.39535,-5.98745 5.28486,-5.98848 12.447,-9.93661 1.26926,-0.51697 2.60912,-0.50546 3.96045,-0.39574 1.35126,0.10556 2.71043,0.26686 3.92176,0.92557 1.074833,0.5857 2.177283,1.11694 3.226693,1.75001 1.46136,0.96063 2.88183,1.96739 4.263,3.04028 1.87283,1.26154 3.55856,2.77376 5.2805,4.23015 2.31058,2.14342 4.71239,4.19735 6.87346,6.49455 2.47954,2.68853 4.91006,5.42051 7.3663,8.13017 3.14527,3.27984 6.26303,6.58824 9.28855,9.97921 2.66126,2.96164 5.30667,5.93334 8.10024,8.77182 2.49457,2.51692 4.86238,5.14846 7.36174,7.65947 1.41871,1.40002 2.7015,2.92762 4.17373,4.27444 1.48142,1.50332 3.14359,2.82974 4.69842,4.25483 2.36053,2.06905 4.92885,3.90459 7.66468,5.44712 2.38761,1.25869 4.8903,2.81392 7.67499,2.77591 0.64245,-0.11755 0.90467,-0.13852 1.50974,-0.34804 0.23242,-0.0805 0.89431,-0.40512 0.68305,-0.27915 -15.59999,9.30272 -10.74424,6.35639 -7.44498,4.31228 0.94013,-0.83415 1.76443,-1.77686 2.69716,-2.61106 3.22543,-2.8847 8.77246,-3.0861 11.13565,-6.67239 0.30901,-0.036 0.61797,-0.14362 0.92705,-0.1081 2.16523,0.24883 2.56653,3.23864 3.03077,4.83579 0.22478,0.76732 0.4777,1.967 1.00227,2.65578 0.51264,0.67312 1.26932,0.17324 1.26125,0.17826 -17.22956,10.73234 -9.97492,5.9909 -7.27192,4.21426 5.69372,-3.45639 11.3725,-7.31453 17.76307,-9.36875 1.93299,-0.1753 3.65758,0.3828 5.37301,1.26563 0.77876,0.33189 1.55354,0.7167 2.43153,0.56185 0.27375,-0.0483 1.0266,-0.41459 0.78878,-0.27066 -4.15312,2.51344 -12.11224,6.96931 -7.63411,4.45838 28.15513,-16.38474 2.82867,-1.64525 2.57244,-1.49901 -0.52086,0.29728 1.02446,-0.62445 1.5234,-0.95719 2.04084,-1.36101 1.1241,-0.91236 3.27774,-2.17569 3.64376,-2.13745 7.30702,-4.24149 10.96053,-6.36224 2.07827,-1.12814 4.41241,-2.42045 6.74482,-1.22012 1.65971,1.35534 2.60549,3.29693 3.54701,5.1873 1.24788,2.86114 2.50439,5.73303 4.01469,8.46548 0.45187,0.59009 0.95289,1.4665 1.72165,1.7679 0.23615,0.0926 0.97298,-0.12913 0.76088,0.01 -15.45676,10.13788 -9.59728,5.89449 -6.3853,3.50584 0.43306,-0.2954 0.87668,-0.57589 1.29919,-0.88619 0.42523,-0.3123 0.79094,-0.70763 1.24249,-0.9805 4.27066,-2.5807 9.16968,-6.26413 14.35902,-7.5945 2.16853,-0.25919 3.28008,0.32197 4.37724,2.21108 0.89077,1.65656 1.74836,3.32374 2.58671,5.00813 1.47708,2.44157 3.22083,4.69403 5.62439,6.30373 2.40422,1.43195 4.90384,2.51032 7.76049,2.47274 3.26426,0.0156 6.54024,0.0567 9.79342,-0.24735 0.37104,-0.065 0.74761,-0.10397 1.11312,-0.19506 0.27964,-0.0697 1.05936,-0.44012 0.816,-0.28574 -2.92412,1.85502 -5.9467,3.55143 -8.87572,5.39872 -0.12613,0.0795 0.3227,0.0129 0.44042,-0.0787 0.23997,-0.18662 0.0373,-0.72419 0.004,-0.88233 -0.66652,-1.40388 -1.66658,-2.62124 -2.23034,-4.07601 -0.54571,-1.85875 -1.1042,-3.65615 -0.86198,-5.62824 0.029,-2.24054 0.11871,-4.49654 0.56549,-6.69822 1.62492,-6.78206 4.5078,-6.45282 12.14072,-10.77212 1.37984,-0.70518 2.77133,-0.80609 4.24417,-0.27234 1.15212,0.49249 2.17649,1.24306 2.45381,2.5364 -0.0801,1.34404 -0.81586,2.5114 -1.4801,3.64923 -7.4516,4.20531 -8.05911,7.01621 -14.20741,5.29591 -1.95776,-0.70103 -3.71317,-1.74792 -5.30646,-3.08987 0,0 9.49117,-5.96166 9.49117,-5.96166 z" />
      <path
         inkscape:connector-curvature="0"
         style="fill:#000000;fill-opacity:1;stroke:none"
         id="path3774"
         d="m 80.570837,588.56321 c 2.79411,0.0555 5.58896,0.0679 8.38354,0.0817 4.79891,0.14763 9.58571,-0.0974 14.334713,-0.78892 4.58038,-0.88122 8.93317,-2.49101 13.27481,-4.14528 3.57659,-1.35212 7.10771,-2.80347 10.63932,-4.2661 2.82442,-1.41763 5.59081,-2.97341 8.34603,-4.52849 4.03849,-2.16417 16.87731,-9.46746 -0.27701,0.29627 1.89635,-1.11759 3.62068,-2.47894 5.41688,-3.74169 4.59751,-2.80004 8.92299,-6.32154 14.00798,-8.14857 3.43468,-1.82898 7.90959,-4.40128 -7.91962,4.58724 -0.16703,0.0949 0.32215,-0.20928 0.48447,-0.31197 0.64634,-0.40891 0.27248,-0.13397 0.87646,-0.62768 1.27217,-0.78143 2.42978,-1.7141 3.61536,-2.62211 1.20904,-0.90181 2.44011,-1.77999 3.6277,-2.70902 0.73642,-0.81605 1.51051,-1.58006 2.34969,-2.2895 0,0 10.34301,-4.20758 10.34301,-4.20758 l 0,0 c -0.79637,0.72957 -1.75034,1.2816 -2.34938,2.21013 -0.96481,1.21016 -2.46853,1.84957 -3.59652,2.90372 -1.24164,0.80791 -2.22946,1.94695 -3.57125,2.56388 -1.9048,1.33966 1.08242,-0.80326 -0.84364,0.72839 -3.50341,2.786 -7.70618,4.77899 -11.77667,6.7118 -3.58005,1.89902 -2.01313,1.07877 8.20956,-4.8143 0.24323,-0.14021 -0.4767,0.29727 -0.70611,0.4591 -1.17215,0.82682 -0.26976,0.32096 -1.56507,1.02783 -0.27592,0.15058 -0.55682,0.29183 -0.83524,0.43775 -1.03985,0.78728 -0.49516,0.41316 -1.63711,1.11794 -1.27255,0.92546 -2.44168,1.99352 -3.85737,2.72272 -6.14396,3.60711 -12.26739,7.21492 -18.53302,10.60075 -2.78184,1.54874 -5.53817,3.17311 -8.45709,4.4511 -3.488,1.44624 -7.0129,2.79117 -10.53819,4.1439 -4.36877,1.64552 -8.781183,3.18133 -13.407833,3.9366 -4.81238,0.60508 -9.65412,0.78641 -14.50356,0.73105 -2.86952,0.014 -5.73927,0.0271 -8.60836,0.0817 0,0 9.07352,-6.5923 9.07352,-6.5923 z" />
      <path
         inkscape:connector-curvature="0"
         style="fill:#000000;fill-opacity:1;stroke:none"
         id="path3776"
         d="m 127.46907,530.55182 c 0.18836,0.28188 0.35531,0.57929 0.56508,0.84562 1.59801,2.02895 -0.10171,-0.45579 1.5978,1.86957 0.94155,1.28828 1.69732,2.70601 2.46912,4.09783 1.74622,2.78992 3.09964,5.76505 4.32789,8.80984 1.07725,2.88991 1.81894,5.88677 2.60534,8.86442 0.74372,2.70702 1.20801,5.47954 1.97565,8.17982 0.63886,2.23976 1.14695,4.51256 1.71604,6.76953 0.50421,2.4048 1.35431,4.71301 1.98214,7.08481 0.39586,1.75458 0.90412,3.47508 1.19123,5.25279 0.13566,1.39892 0.16248,2.10516 1.64326,2.34716 2.23719,-0.0976 4.42769,-0.53746 6.64325,-0.82212 4.93595,-0.49034 9.89554,-0.32574 14.84215,-0.15693 7.19742,0.41177 14.29946,1.79541 21.41444,2.89878 3.71055,0.52455 1.93151,0.28758 5.33619,0.71783 0,0 -8.85767,6.24692 -8.85767,6.24692 l 0,0 c -3.31077,-0.52125 -1.57768,-0.24258 -5.19873,-0.83942 -7.07402,-1.1816 -14.1608,-2.52921 -21.34472,-2.77676 -5.01429,-0.11507 -10.04922,-0.15041 -15.0316,0.52203 -2.31897,0.35147 -4.71137,0.91223 -7.05328,0.50479 -1.50786,-0.65458 -2.23885,-1.75585 -2.26656,-3.42718 -0.23611,-1.75852 -0.72766,-3.45165 -1.08181,-5.18654 -0.5666,-2.3898 -1.43733,-4.68651 -1.97648,-7.08275 -0.58072,-2.2466 -1.06273,-4.51862 -1.68456,-6.75556 -0.75869,-2.71538 -1.17996,-5.50827 -1.95856,-8.21891 -0.73218,-2.94474 -1.47818,-5.89547 -2.48633,-8.75945 -1.23018,-2.99501 -2.54395,-5.93528 -4.26581,-8.68851 -1.34059,-2.37064 -2.81727,-4.59006 -4.72425,-6.54745 0,0 9.62078,-5.75016 9.62078,-5.75016 z" />
      <path
         inkscape:connector-curvature="0"
         id="path3778"
         d="M 672.33019,176.10719 533.13122,322.93053 c 0,0 22.22452,14.38868 31.44994,25.16497 6.94305,8.11023 23.80846,33.21465 23.80846,33.21465 L 724.77086,225.15317 c 0,0 183.69842,-218.7030084 171.64091,-233.8260884 C 875.82688,-34.491408 673.07653,175.713 672.33019,176.10719 z"
         style="fill:#000000;stroke:#000000;stroke-width:1px;stroke-linecap:butt;stroke-linejoin:miter;stroke-opacity:1"
         inkscape:transform-center-x="-32.461674"
         inkscape:transform-center-y="-15.853376"
         sodipodi:nodetypes="ccsccsc" />
      <path
         inkscape:connector-curvature="0"
         style="fill:#ffffff;stroke:#000000;stroke-width:1px;stroke-linecap:butt;stroke-linejoin:miter;stroke-opacity:1"
         d="m 672.63609,178.53921 c 0,0 16.23084,8.68161 26.04483,19.25052 9.814,10.56892 26.04483,26.79976 26.04483,26.79976 l -2.64223,0.75492 -50.20235,-44.16297 0.75492,-2.64223 z"
         id="path3780" />
      <path
         inkscape:connector-curvature="0"
         id="path3782"
         d="m 793.78649,59.107538 c 0,0 11.10832,6.078205 17.82497,13.477755 6.71666,7.399558 17.82497,18.763162 17.82497,18.763162 l -1.80833,0.528539 -34.35827,-30.919567 0.51666,-1.849889 z"
         style="fill:#ffffff;stroke:#000000;stroke-width:0.69221532px;stroke-linecap:butt;stroke-linejoin:miter;stroke-opacity:1" />
      <g
         id="g3786">
        <path
           inkscape:connector-curvature="0"
           id="path3766"
           d="m 289.32411,629.0393 c 0,0 0.37746,1.50985 2.26477,1.32112 1.88731,-0.18873 3.96334,-1.50985 4.52954,-3.20843 0.56619,-1.69857 1.50984,-3.20842 3.20842,-4.71826 1.69857,-1.50985 17.36322,-12.07876 18.87306,-12.83369 1.50985,-0.75492 26.79976,-11.32384 28.12087,-11.89003 1.32112,-0.56619 20.94911,-3.20842 22.27022,-4.52954 1.32111,-1.32111 15.28718,-18.87306 15.28718,-18.87306 l 1.13239,-0.37746 1.69857,-2.07604 -0.37746,-1.13238 1.50985,-2.26477 1.69857,0.94365 2.83096,-4.3408 -1.69857,-1.32112 2.26477,-2.64223 2.45349,2.4535 2.83096,-4.15207 -2.45349,-2.07604 1.32111,-2.07604 3.20842,1.88731 3.01969,-3.77462 -2.07603,-2.45349 2.07603,-3.20843 3.01969,3.39716 3.01969,-4.15208 -2.64223,-3.20842 1.88731,-2.26477 3.77461,3.77462 3.0197,-3.96335 -3.96335,-3.77461 0.37746,-0.18873 10.00273,7.92669 5.28446,-3.20843 2.07603,-0.37746 -50.01362,-46.61647 -2.83096,5.09573 -0.18873,1.69857 3.77461,4.15208 -48.31505,43.40805 c 0,0 -8.11542,6.98304 -8.68161,7.92669 -0.56619,0.94365 -5.47319,8.30415 -5.85065,9.2478 -0.37746,0.94365 -6.60557,16.79703 -7.17177,18.49561 -0.56619,1.69857 -5.66192,13.39987 -6.98303,15.47591 -1.32112,2.07604 -10.00273,17.92941 -10.00273,17.92941 0,0 -3.39715,2.07604 -3.77461,2.64223 -0.37746,0.5662 -1.88731,2.64223 -1.88731,3.77462 0,1.13238 -0.56619,2.64223 2.07604,4.15207 z"
           style="fill:#000000;stroke:#000000;stroke-width:1px;stroke-linecap:butt;stroke-linejoin:miter;stroke-opacity:1" />
        <path
           inkscape:connector-curvature="0"
           transform="translate(71.497317,-11.370393)"
           id="path3784"
           d="m 216.05997,641.11061 c 0,0 6.27228,-8.94134 7.20645,-9.6086 0.93417,-0.66727 35.23152,-42.17106 35.23152,-42.17106 0,0 -1.73488,-0.66727 -1.33452,-1.73489 0.40035,-1.06762 2.8025,-3.06941 3.60322,-2.5356 0.80072,0.53381 2.80251,0.66726 2.80251,2.26869 0,1.60144 1.73488,2.13525 -0.13346,2.40215 -1.86833,0.26691 -3.33631,-0.13345 -3.33631,-0.13345 l -42.97178,52.31347 -1.06763,-0.80071 z"
           style="fill:#ffffff;stroke:#ffffff;stroke-width:1px;stroke-linecap:butt;stroke-linejoin:miter;stroke-opacity:1" />
      </g>
    </g>
  </g>
</svg>
