<?xml version="1.0" encoding="UTF-8" standalone="no"?>
<!-- Created with Inkscape (http://www.inkscape.org/) -->

<svg
   xmlns:osb="http://www.openswatchbook.org/uri/2009/osb"
   xmlns:dc="http://purl.org/dc/elements/1.1/"
   xmlns:cc="http://creativecommons.org/ns#"
   xmlns:rdf="http://www.w3.org/1999/02/22-rdf-syntax-ns#"
   xmlns:svg="http://www.w3.org/2000/svg"
   xmlns="http://www.w3.org/2000/svg"
   xmlns:xlink="http://www.w3.org/1999/xlink"
   xmlns:sodipodi="http://sodipodi.sourceforge.net/DTD/sodipodi-0.dtd"
   xmlns:inkscape="http://www.inkscape.org/namespaces/inkscape"
   inkscape:export-ydpi="90"
   inkscape:export-xdpi="90"
   inkscape:export-filename="/home/jonathan/Desktop/voc2brain_pictures/vokabel-Kärtchen/ftlist.png"
   y="0"
   x="0"
   width="60.0000000"
   version="1.0"
   sodipodi:version="0.32"
   sodipodi:docname="tab_list.svg"
   inkscape:version="0.48.2 r9819"
   id="svg1"
   height="60.0000000">
  <sodipodi:namedview
     bordercolor="#666666"
     borderopacity="1.0"
     id="base"
     inkscape:cx="59.793938"
     inkscape:cy="13.220025"
     inkscape:pageopacity="0.0"
     inkscape:pageshadow="2"
     inkscape:window-height="1006"
     inkscape:window-width="1680"
     inkscape:window-x="1920"
     inkscape:window-y="52"
     inkscape:zoom="4.9119412"
     pagecolor="#ffffff"
     showgrid="false"
     inkscape:window-maximized="1"
     inkscape:current-layer="svg1" />
  <metadata
     id="metadata3">
    <rdf:RDF>
      <cc:Work
         rdf:about="">
        <dc:title></dc:title>
        <dc:description />
        <dc:subject>
          <rdf:Bag>
            <rdf:li>hash</rdf:li>
            <rdf:li />
            <rdf:li>action</rdf:li>
            <rdf:li>computer</rdf:li>
            <rdf:li>icons</rdf:li>
            <rdf:li>theme</rdf:li>
          </rdf:Bag>
        </dc:subject>
        <dc:publisher>
          <cc:Agent
             rdf:about="http://www.openclipart.org">
            <dc:title>Danny Allen</dc:title>
          </cc:Agent>
        </dc:publisher>
        <dc:creator>
          <cc:Agent>
            <dc:title>Danny Allen</dc:title>
          </cc:Agent>
        </dc:creator>
        <dc:rights>
          <cc:Agent>
            <dc:title>Danny Allen</dc:title>
          </cc:Agent>
        </dc:rights>
        <dc:date />
        <dc:format>image/svg+xml</dc:format>
        <dc:type
           rdf:resource="http://purl.org/dc/dcmitype/StillImage" />
        <cc:license
           rdf:resource="http://web.resource.org/cc/PublicDomain" />
        <dc:language>en</dc:language>
      </cc:Work>
      <cc:License
         rdf:about="http://web.resource.org/cc/PublicDomain">
        <cc:permits
           rdf:resource="http://web.resource.org/cc/Reproduction" />
        <cc:permits
           rdf:resource="http://web.resource.org/cc/Distribution" />
        <cc:permits
           rdf:resource="http://web.resource.org/cc/DerivativeWorks" />
      </cc:License>
    </rdf:RDF>
  </metadata>
  <defs
     id="defs3">
    <linearGradient
       id="linearGradient3779"
       osb:paint="solid">
      <stop
         style="stop-color:#000000;stop-opacity:1;"
         offset="0"
         id="stop3781" />
    </linearGradient>
    <linearGradient
       id="linearGradient1160">
      <stop
         style="stop-color:#000000;stop-opacity:1;"
         offset="0"
         id="stop1161" />
      <stop
         style="stop-color:#ffffff;stop-opacity:1;"
         offset="1"
         id="stop1162" />
    </linearGradient>
    <linearGradient
       xlink:href="#linearGradient1160"
       id="linearGradient1163" />
    <filter
       color-interpolation-filters="sRGB"
       inkscape:menu-tooltip="Render in shades of gray by reducing saturation to zero"
       inkscape:menu="Color"
       height="1"
       width="1"
       y="0"
       x="0"
       inkscape:label="Desaturate"
       id="filter3076">
      <feColorMatrix
         values="0"
         type="saturate"
         id="feColorMatrix3078" />
    </filter>
    <filter
       color-interpolation-filters="sRGB"
       inkscape:menu-tooltip="Render in shades of gray by reducing saturation to zero"
       inkscape:menu="Color"
       height="1"
       width="1"
       y="0"
       x="0"
       inkscape:label="Desaturate"
       id="filter3080">
      <feColorMatrix
         values="0"
         type="saturate"
         id="feColorMatrix3082" />
    </filter>
    <filter
       color-interpolation-filters="sRGB"
       inkscape:menu-tooltip="Render in shades of gray by reducing saturation to zero"
       inkscape:menu="Color"
       height="1"
       width="1"
       y="0"
       x="0"
       inkscape:label="Desaturate"
       id="filter3084">
      <feColorMatrix
         values="0"
         type="saturate"
         id="feColorMatrix3086" />
    </filter>
    <filter
       color-interpolation-filters="sRGB"
       inkscape:menu-tooltip="Render in shades of gray by reducing saturation to zero"
       inkscape:menu="Color"
       height="1"
       width="1"
       y="0"
       x="0"
       inkscape:label="Desaturate"
       id="filter3088">
      <feColorMatrix
         values="0"
         type="saturate"
         id="feColorMatrix3090" />
    </filter>
    <filter
       color-interpolation-filters="sRGB"
       inkscape:menu-tooltip="Render in shades of gray by reducing saturation to zero"
       inkscape:menu="Color"
       height="1"
       width="1"
       y="0"
       x="0"
       inkscape:label="Desaturate"
       id="filter3092">
      <feColorMatrix
         values="0"
         type="saturate"
         id="feColorMatrix3094" />
    </filter>
  </defs>
  <path
     style="fill:#121212;stroke:#7f7f7f;stroke-width:0.16571836000000001;filter:url(#filter3092);fill-opacity:1"
     id="path3"
     d="m 57.600538,29.101335 c -0.01998,-0.05587 -0.04831,-0.110368 -0.08294,-0.160498 -0.03463,-0.05015 -0.07557,-0.09604 -0.120726,-0.134564 -0.04508,-0.03849 -0.09446,-0.06985 -0.145916,-0.09081 L 33.606924,19.074959 c -0.03455,-0.01434 -0.0696,-0.03273 -0.105314,-0.0556 -0.03571,-0.02288 -0.07209,-0.05029 -0.109374,-0.08286 -0.03728,-0.03256 -0.07557,-0.0701 -0.115008,-0.113266 -0.03944,-0.04317 -0.07996,-0.09198 -0.121887,-0.146828 -0.06239,-0.08162 -0.126028,-0.176575 -0.18983,-0.283377 -0.0638,-0.106806 -0.127852,-0.225461 -0.190824,-0.354391 -0.06305,-0.128927 -0.125034,-0.268132 -0.184776,-0.416116 -0.05983,-0.148071 -0.117413,-0.304758 -0.171601,-0.468735 -0.05461,-0.164228 -0.106143,-0.33558 -0.153954,-0.512567 -0.04772,-0.177072 -0.09173,-0.35994 -0.131331,-0.547037 -0.03969,-0.187262 -0.07482,-0.378833 -0.105064,-0.573303 -0.03017,-0.194716 -0.05526,-0.392338 -0.07457,-0.591447 -0.02618,-0.265815 -0.04085,-0.521351 -0.04483,-0.763879 -0.0041,-0.243027 0.0025,-0.473126 0.01872,-0.687813 0.01615,-0.215021 0.04192,-0.414546 0.07631,-0.596008 0.03439,-0.181709 0.07747,-0.345356 0.127934,-0.488206 0.02511,-0.07142 0.05212,-0.137547 0.08062,-0.198198 0.0285,-0.06065 0.0585,-0.115837 0.08973,-0.165389 0.03116,-0.04963 0.06356,-0.09355 0.0967,-0.131662 0.03314,-0.03812 0.0672,-0.07051 0.101583,-0.09694 0.0062,-0.0047 0.01242,-0.0093 0.01872,-0.01368 0.0063,-0.0044 0.01242,-0.0086 0.01864,-0.01251 0.0062,-0.004 0.01242,-0.0079 0.01864,-0.01152 0.0062,-0.0037 0.01234,-0.0071 0.01864,-0.01043 -10.229462,5.465802 -20.45793,10.931278 -30.6872242,16.396838 -0.0053,0.0028 -0.010523,0.0057 -0.015827,0.009 -0.0053,0.0035 -0.010523,0.0064 -0.015742,0.01017 -0.00523,0.0035 -0.010439,0.0074 -0.015658,0.0113 -0.00516,0.0042 -0.010354,0.0081 -0.01558,0.01243 -0.028498,0.02422 -0.055929,0.05488 -0.081866,0.09164 -0.025934,0.0368 -0.050455,0.07979 -0.073247,0.12885 -0.022706,0.04908 -0.043746,0.104152 -0.062723,0.165308 -0.01897,0.06109 -0.035878,0.12801 -0.050378,0.200931 -0.029416,0.145497 -0.049467,0.313785 -0.059326,0.502209 -0.00997,0.188084 -0.00977,0.396064 0.00113,0.621439 0.010778,0.224966 0.032234,0.467242 0.064877,0.724356 0.032643,0.256536 0.076562,0.527733 0.1323266,0.811107 0.041514,0.212203 0.088161,0.423411 0.1390361,0.632054 0.050872,0.208475 0.1059773,0.414378 0.1647256,0.616221 0.058662,0.201595 0.1208075,0.399129 0.1857694,0.59112 0.064877,0.191735 0.1326572,0.377998 0.2023426,0.557226 0.06927,0.178726 0.1408603,0.350327 0.2133638,0.512816 0.0725,0.162568 0.1459129,0.316024 0.2190781,0.458958 0.073163,0.142763 0.146081,0.274841 0.2173379,0.394496 0.071344,0.119648 0.1411111,0.226781 0.2080626,0.319746 0.045074,0.0625 0.088077,0.11849 0.1294267,0.168288 0.041344,0.05 0.080951,0.0938 0.1190679,0.132248 0.038117,0.03842 0.074905,0.07134 0.110448,0.09951 0.035546,0.02818 0.069849,0.05135 0.1033282,0.07041 L 26.884595,48.98092 c 0.05113,0.02867 0.101337,0.06794 0.1484,0.114428 0.04698,0.04654 0.0909,0.100254 0.12926,0.157765 0.03836,0.05742 0.07118,0.118815 0.09636,0.180549 0.02511,0.06166 0.04251,0.123709 0.0498,0.182703 0.0037,0.02966 0.0047,0.05721 0.0032,0.08228 -0.0016,0.02521 -0.0055,0.04795 -0.01185,0.0683 -0.0063,0.02027 -0.01492,0.03814 -0.02552,0.05339 -0.01059,0.01519 -0.02336,0.02769 -0.03786,0.03743 10.097882,-6.782605 20.19568,-13.565373 30.293561,-20.348148 0.01659,-0.01123 0.03157,-0.02479 0.04458,-0.04061 0.01299,-0.01582 0.02419,-0.03397 0.03314,-0.05417 0.009,-0.0202 0.01574,-0.04252 0.02023,-0.06681 0.0044,-0.02423 0.0064,-0.05036 0.0057,-0.0783 -0.0011,-0.05544 -0.01283,-0.112607 -0.0329,-0.168366 z"
     inkscape:connector-curvature="0" />
  <g
     style="filter:url(#filter3088)"
     id="g5"
     transform="matrix(0.08285918,0,0,0.08285918,0.79792254,10.805697)">
    <g
       id="g7">
      <g
         id="g9">
        <g
           id="g11">
          <path
             style="fill:#737373"
             id="path13"
             d="m 297.156,394.956 c 0.518,4.06 1.193,8.109 2.008,12.109 0.814,3.994 1.768,7.94 2.846,11.803 1.077,3.856 2.278,7.631 3.587,11.284 1.308,3.65 2.725,7.182 4.236,10.558 0.443,0.986 0.894,1.96 1.353,2.921 0.459,0.96 0.927,1.906 1.403,2.839 0.477,0.933 0.961,1.852 1.455,2.755 0.494,0.904 0.996,1.793 1.508,2.667 L 42.066,299.763 c -0.407,-0.229 -0.824,-0.51 -1.256,-0.85 -0.432,-0.34 -0.877,-0.738 -1.34,-1.203 -0.463,-0.465 -0.943,-0.995 -1.444,-1.599 -0.501,-0.604 -1.022,-1.28 -1.568,-2.037 -0.812,-1.124 -1.656,-2.421 -2.52,-3.869 -0.864,-1.448 -1.745,-3.047 -2.63,-4.776 -0.885,-1.729 -1.772,-3.588 -2.648,-5.556 -0.876,-1.969 -1.739,-4.047 -2.576,-6.212 -0.841,-2.169 -1.657,-4.425 -2.439,-6.748 -0.783,-2.325 -1.531,-4.719 -2.236,-7.161 -0.706,-2.444 -1.368,-4.938 -1.979,-7.464 -0.61,-2.528 -1.169,-5.088 -1.665,-7.659 -0.667,-3.434 -1.189,-6.721 -1.575,-9.83 -0.387,-3.115 -0.637,-6.052 -0.758,-8.78 -0.122,-2.733 -0.114,-5.255 0.016,-7.536 0.129,-2.285 0.38,-4.326 0.746,-6.091 0.18,-0.884 0.389,-1.697 0.623,-2.438 0.234,-0.742 0.493,-1.411 0.772,-2.006 0.28,-0.596 0.581,-1.118 0.898,-1.565 0.318,-0.447 0.653,-0.819 1.001,-1.114 0.354,-0.295 0.714,-0.518 1.08,-0.671 0.366,-0.153 0.738,-0.239 1.117,-0.261 0.38,-0.022 0.767,0.02 1.161,0.12 0.395,0.1 0.798,0.259 1.211,0.472 l 278.838,144.787 c -0.671,0.807 -1.291,1.716 -1.859,2.719 -0.567,1.002 -1.084,2.1 -1.553,3.284 -0.468,1.183 -0.887,2.453 -1.26,3.805 -0.372,1.35 -0.697,2.78 -0.978,4.284 -0.383,2.081 -0.677,4.309 -0.878,6.67 -0.201,2.357 -0.309,4.849 -0.321,7.462 -0.012,2.609 0.072,5.341 0.256,8.183 0.184,2.836 0.467,5.785 0.854,8.833 z"
             inkscape:connector-curvature="0" />
        </g>
      </g>
    </g>
  </g>
  <g
     style="filter:url(#filter3084)"
     id="g15"
     transform="matrix(0.08285918,0,0,0.08285918,0.79792254,10.805697)">
    <g
       id="g17">
      <g
         id="g19">
        <g
           id="g21">
          <path
             style="fill:#ffffff"
             id="path23"
             d="m 297.156,394.956 c 0.518,4.06 1.193,8.109 2.008,12.109 0.814,3.994 1.768,7.94 2.846,11.803 1.077,3.856 2.278,7.631 3.587,11.284 1.308,3.65 2.725,7.182 4.236,10.558 0.443,0.986 0.894,1.96 1.353,2.921 0.459,0.96 0.927,1.906 1.403,2.839 0.477,0.933 0.961,1.852 1.455,2.755 0.494,0.904 0.996,1.793 1.508,2.667 L 42.066,299.763 c -0.407,-0.229 -0.824,-0.51 -1.256,-0.85 -0.432,-0.34 -0.877,-0.738 -1.34,-1.203 -0.463,-0.465 -0.943,-0.995 -1.444,-1.599 -0.501,-0.604 -1.022,-1.28 -1.568,-2.037 -0.812,-1.124 -1.656,-2.421 -2.52,-3.869 -0.864,-1.448 -1.745,-3.047 -2.63,-4.776 -0.885,-1.729 -1.772,-3.588 -2.648,-5.556 -0.876,-1.969 -1.739,-4.047 -2.576,-6.212 -0.841,-2.169 -1.657,-4.425 -2.439,-6.748 -0.783,-2.325 -1.531,-4.719 -2.236,-7.161 -0.706,-2.444 -1.368,-4.938 -1.979,-7.464 -0.61,-2.528 -1.169,-5.088 -1.665,-7.659 -0.667,-3.434 -1.189,-6.721 -1.575,-9.83 -0.387,-3.115 -0.637,-6.052 -0.758,-8.78 -0.122,-2.733 -0.114,-5.255 0.016,-7.536 0.129,-2.285 0.38,-4.326 0.746,-6.091 0.18,-0.884 0.389,-1.697 0.623,-2.438 0.234,-0.742 0.493,-1.411 0.772,-2.006 0.28,-0.596 0.581,-1.118 0.898,-1.565 0.318,-0.447 0.653,-0.819 1.001,-1.114 0.354,-0.295 0.714,-0.518 1.08,-0.671 0.366,-0.153 0.738,-0.239 1.117,-0.261 0.38,-0.022 0.767,0.02 1.161,0.12 0.395,0.1 0.798,0.259 1.211,0.472 l 278.838,144.787 c -0.671,0.807 -1.291,1.716 -1.859,2.719 -0.567,1.002 -1.084,2.1 -1.553,3.284 -0.468,1.183 -0.887,2.453 -1.26,3.805 -0.372,1.35 -0.697,2.78 -0.978,4.284 -0.383,2.081 -0.677,4.309 -0.878,6.67 -0.201,2.357 -0.309,4.849 -0.321,7.462 -0.012,2.609 0.072,5.341 0.256,8.183 0.184,2.836 0.467,5.785 0.854,8.833 z"
             inkscape:connector-curvature="0" />
        </g>
        <path
           style="fill:#737373"
           id="path25"
           d="m 378.596,15.184 c -0.352,-0.131 -0.699,-0.229 -1.046,-0.289 -0.347,-0.06 -0.691,-0.084 -1.035,-0.068 -0.345,0.016 -0.688,0.071 -1.032,0.169 -0.343,0.098 -0.688,0.237 -1.032,0.422 -118.07,63.111 -236.129,126.219 -354.198,189.33 0.298,-0.159 0.6,-0.271 0.906,-0.338 0.307,-0.068 0.618,-0.091 0.934,-0.072 0.316,0.019 0.638,0.079 0.965,0.178 0.327,0.1 0.66,0.238 0.999,0.413 L 302.895,349.716 663.259,122.791 378.596,15.184 z"
           inkscape:connector-curvature="0" />
        <path
           style="fill:#e3e3e3"
           id="path27"
           d="m 664.589,216.434 c -0.431,-0.807 -0.851,-1.628 -1.259,-2.464 -0.409,-0.836 -0.808,-1.687 -1.195,-2.551 -0.388,-0.864 -0.766,-1.743 -1.133,-2.635 -1.252,-3.051 -2.388,-6.262 -3.396,-9.6 -1.008,-3.34 -1.887,-6.808 -2.625,-10.368 -0.738,-3.565 -1.336,-7.225 -1.778,-10.945 -0.444,-3.726 -0.732,-7.514 -0.854,-11.33 -0.088,-2.864 -0.076,-5.645 0.03,-8.33 0.105,-2.689 0.307,-5.284 0.597,-7.773 0.291,-2.493 0.671,-4.879 1.135,-7.148 0.465,-2.273 1.015,-4.427 1.644,-6.453 0.458,-1.464 0.956,-2.862 1.496,-4.189 0.539,-1.329 1.12,-2.585 1.743,-3.764 0.624,-1.18 1.29,-2.282 2,-3.299 0.71,-1.019 1.465,-1.952 2.264,-2.795 L 302.894,349.715 c -0.671,0.807 -1.291,1.716 -1.859,2.719 -0.567,1.002 -1.084,2.1 -1.553,3.284 -0.468,1.183 -0.887,2.453 -1.26,3.805 -0.372,1.35 -0.697,2.78 -0.978,4.284 -0.383,2.081 -0.677,4.309 -0.878,6.67 -0.201,2.357 -0.309,4.849 -0.321,7.462 -0.012,2.609 0.072,5.341 0.256,8.183 0.184,2.838 0.467,5.786 0.854,8.834 0.518,4.06 1.193,8.109 2.008,12.109 0.814,3.994 1.768,7.94 2.846,11.803 1.077,3.856 2.278,7.631 3.587,11.284 1.308,3.65 2.725,7.182 4.236,10.558 0.443,0.986 0.894,1.96 1.353,2.921 0.459,0.96 0.927,1.906 1.403,2.839 0.477,0.933 0.961,1.852 1.455,2.755 0.494,0.904 0.996,1.793 1.508,2.667 L 665.913,218.808 c -0.452,-0.776 -0.893,-1.568 -1.324,-2.374 z"
           inkscape:connector-curvature="0" />
      </g>
    </g>
  </g>
  <path
     style="fill:#000000;stroke:#7f7f7f;stroke-width:0.16571836000000001;filter:url(#filter3080);fill-opacity:1"
     id="path29"
     d="m 57.394965,20.345441 c -0.02054,-0.05792 -0.04971,-0.114098 -0.08518,-0.165388 -0.03562,-0.05129 -0.07764,-0.09769 -0.123873,-0.136221 -0.04624,-0.03853 -0.09695,-0.0691 -0.149811,-0.08874 L 32.839483,10.949541 c -0.06347,-0.02362 -0.125283,-0.04002 -0.185191,-0.04988 -0.05999,-0.0098 -0.118074,-0.01302 -0.174171,-0.01012 -0.0561,0.0029 -0.110119,0.01193 -0.161988,0.02644 -0.05178,0.0145 -0.101502,0.03455 -0.148733,0.05966 -10.24918,5.435976 -20.498283,10.871621 -30.747467,16.307681 0.040434,-0.02147 0.083771,-0.03736 0.129676,-0.04725 0.045907,-0.0098 0.094625,-0.01349 0.145913,-0.01052 0.051289,0.0028 0.1052337,0.0125 0.1615764,0.02931 0.05643,0.01681 0.1152591,0.04096 0.1764906,0.07267 l 23.678005,12.301609 c 0.05237,0.02726 0.103905,0.06589 0.152212,0.112437 0.04831,0.04654 0.09338,0.101172 0.132908,0.160173 0.03952,0.05897 0.07341,0.122374 0.09935,0.186764 0.02593,0.06427 0.04399,0.129507 0.05178,0.192146 0.0042,0.03355 0.0052,0.06462 0.0033,0.09305 -0.0018,0.02839 -0.0066,0.0541 -0.01399,0.07706 -0.0074,0.02295 -0.0173,0.04294 -0.02966,0.05989 -0.01226,0.01688 -0.02701,0.03072 -0.04375,0.04132 10.414818,-6.587959 20.828725,-13.175099 31.243626,-19.763068 0.019,-0.01201 0.03621,-0.02692 0.0512,-0.04441 0.01499,-0.01749 0.02784,-0.0377 0.0382,-0.06032 0.01035,-0.02262 0.0183,-0.04756 0.02335,-0.07474 0.0052,-0.02717 0.0076,-0.05652 0.0068,-0.08783 -0.0011,-0.05849 -0.01345,-0.118239 -0.03397,-0.176241 z"
     inkscape:connector-curvature="0" />
  <g
     style="filter:url(#filter3076);fill-opacity:1;fill:#000000"
     id="g31"
     transform="matrix(0.08285918,0,0,0.08285918,0.79792254,10.805697)">
    <path
       style="fill:#000000;stroke:#7f7f7f;stroke-width:2;fill-opacity:1"
       id="path33"
       d="m 14.937,199.397 285.762,148.464 c 0.632,0.329 1.254,0.795 1.837,1.357 0.583,0.562 1.127,1.221 1.604,1.933 0.477,0.712 0.886,1.477 1.199,2.254 0.313,0.776 0.531,1.563 0.625,2.319 0.094,0.757 0.055,1.409 -0.096,1.942 -0.151,0.533 -0.413,0.946 -0.766,1.224 -0.353,0.277 -0.796,0.419 -1.309,0.408 -0.513,-0.01 -1.095,-0.172 -1.726,-0.503 L 16.918,209.515 c -0.409,-0.213 -0.81,-0.372 -1.201,-0.473 -0.391,-0.101 -0.775,-0.144 -1.151,-0.123 -0.375,0.021 -0.744,0.105 -1.105,0.257 -0.362,0.152 -0.717,0.372 -1.067,0.665 -0.344,0.292 -0.675,0.662 -0.988,1.106 -0.313,0.444 -0.609,0.963 -0.884,1.555 -0.274,0.592 -0.528,1.257 -0.757,1.995 -0.229,0.737 -0.433,1.545 -0.608,2.425 -0.355,1.756 -0.597,3.787 -0.716,6.061 -0.12,2.27 -0.118,4.78 0.012,7.5 0.13,2.715 0.389,5.639 0.783,8.742 0.394,3.096 0.924,6.369 1.597,9.789 0.501,2.561 1.064,5.11 1.678,7.628 0.614,2.516 1.279,5.001 1.988,7.437 0.708,2.433 1.458,4.817 2.242,7.134 0.783,2.314 1.601,4.562 2.442,6.725 0.836,2.157 1.7,4.228 2.575,6.189 0.875,1.962 1.761,3.814 2.644,5.539 0.883,1.723 1.763,3.317 2.623,4.761 0.861,1.444 1.703,2.737 2.511,3.859 0.544,0.754 1.063,1.43 1.562,2.031 0.499,0.603 0.977,1.132 1.437,1.596 0.46,0.464 0.904,0.861 1.333,1.201 0.429,0.34 0.843,0.62 1.247,0.85 l 279.715,156.76 c 0.617,0.346 1.223,0.82 1.791,1.381 0.567,0.562 1.097,1.21 1.56,1.904 0.463,0.693 0.859,1.434 1.163,2.179 0.303,0.744 0.513,1.493 0.601,2.205 0.088,0.712 0.047,1.319 -0.103,1.808 -0.15,0.489 -0.408,0.859 -0.754,1.097 -0.346,0.238 -0.781,0.342 -1.282,0.301 -0.501,-0.041 -1.07,-0.229 -1.686,-0.576 L 36.957,313.536 c -0.897,-0.506 -1.8,-1.127 -2.701,-1.845 -0.9,-0.719 -1.799,-1.535 -2.689,-2.432 -0.889,-0.897 -1.769,-1.875 -2.633,-2.918 -0.863,-1.042 -1.71,-2.149 -2.533,-3.305 -0.831,-1.161 -1.645,-2.375 -2.443,-3.637 -0.798,-1.262 -1.581,-2.572 -2.348,-3.927 -0.768,-1.354 -1.52,-2.753 -2.257,-4.191 -0.737,-1.439 -1.46,-2.919 -2.168,-4.434 -1.412,-3.031 -2.77,-6.215 -4.058,-9.517 -1.289,-3.306 -2.509,-6.73 -3.645,-10.242 -1.137,-3.516 -2.189,-7.119 -3.143,-10.776 -0.955,-3.663 -1.812,-7.382 -2.553,-11.12 -0.554,-2.807 -1.023,-5.527 -1.41,-8.152 -0.387,-2.629 -0.691,-5.163 -0.914,-7.589 -0.223,-2.43 -0.364,-4.753 -0.426,-6.958 -0.062,-2.208 -0.043,-4.299 0.054,-6.259 0.103,-1.959 0.28,-3.794 0.538,-5.488 0.258,-1.696 0.597,-3.251 1.021,-4.648 0.425,-1.399 0.935,-2.639 1.537,-3.704 0.603,-1.066 1.297,-1.957 2.088,-2.655 0.523,-0.463 1.098,-0.833 1.724,-1.1 0.626,-0.267 1.303,-0.428 2.028,-0.474 0.726,-0.045 1.499,0.026 2.318,0.227 0.819,0.203 1.684,0.533 2.593,1.005 z"
       inkscape:connector-curvature="0" />
  </g>
</svg>
